<svg xmlns="http://www.w3.org/2000/svg" xmlns:xlink="http://www.w3.org/1999/xlink" contentStyleType="text/css" data-diagram-type="DESCRIPTION" height="1205px" preserveAspectRatio="none" style="width:660px;height:1205px;background:#FFFFFF;" version="1.1" viewBox="0 0 660 1205" width="660px" zoomAndPan="magnify"><?plantuml 1.2026.4?><defs/><g><g class="title" data-source-line="5"><text fill="#000000" font-family="DejaVu Sans" font-size="14" font-weight="700" lengthAdjust="spacing" textLength="495.1885" x="78.9058" y="22.9951">5G Core: &#1076;&#1077;&#1090;&#1072;&#1083;&#1100;&#1085;&#1072;&#1103; &#1089;&#1093;&#1077;&#1084;&#1072; &#1091;&#1087;&#1088;&#1072;&#1074;&#1083;&#1077;&#1085;&#1080;&#1103; &#1082;&#1086;&#1085;&#1092;&#1080;&#1075;&#1091;&#1088;&#1072;&#1094;&#1080;&#1077;&#1081; &#1080; QoS</text></g><!--entity OSS--><g class="entity" data-qualified-name="OSS" data-source-line="7" id="ent0001"><ellipse cx="248.9512" cy="57.7969" fill="#F1F1F1" rx="8" ry="8" style="stroke:#181818;stroke-width:0.5;"/><path d="M248.9512,65.7969 L248.9512,92.7969 M235.9512,73.7969 L261.9512,73.7969 M248.9512,92.7969 L235.9512,107.7969 M248.9512,92.7969 L261.9512,107.7969" fill="none" style="stroke:#181818;stroke-width:0.5;"/><text fill="#000000" font-family="DejaVu Sans" font-size="14" lengthAdjust="spacing" textLength="60.8877" x="196" y="122.292">OSS/BSS</text><text fill="#000000" font-family="DejaVu Sans" font-size="14" lengthAdjust="spacing" textLength="105.9023" x="196" y="138.5889">catalog, tariffs,</text><text fill="#000000" font-family="DejaVu Sans" font-size="14" lengthAdjust="spacing" textLength="102.498" x="196" y="154.8857">enterprise SLA</text></g><!--entity APP--><g class="entity" data-qualified-name="APP" data-source-line="8" id="ent0002"><ellipse cx="545.1177" cy="236.7969" fill="#F1F1F1" rx="8" ry="8" style="stroke:#181818;stroke-width:0.5;"/><path d="M545.1177,244.7969 L545.1177,271.7969 M532.1177,252.7969 L558.1177,252.7969 M545.1177,271.7969 L532.1177,286.7969 M545.1177,271.7969 L558.1177,286.7969" fill="none" style="stroke:#181818;stroke-width:0.5;"/><text fill="#000000" font-family="DejaVu Sans" font-size="14" lengthAdjust="spacing" textLength="142.9873" x="446" y="301.292">Application Function</text><text fill="#000000" font-family="DejaVu Sans" font-size="14" lengthAdjust="spacing" textLength="198.2354" x="446" y="317.5889">IMS, gaming, enterprise app</text></g><!--entity UDM--><g class="entity" data-qualified-name="UDM" data-source-line="9" id="ent0003"><path d="M70.5,349.2969 C70.5,339.2969 137.1904,339.2969 137.1904,339.2969 C137.1904,339.2969 203.8809,339.2969 203.8809,349.2969 L203.8809,423.4844 C203.8809,433.4844 137.1904,433.4844 137.1904,433.4844 C137.1904,433.4844 70.5,433.4844 70.5,423.4844 L70.5,349.2969" fill="#F1F1F1" style="stroke:#181818;stroke-width:0.5;"/><path d="M70.5,349.2969 C70.5,359.2969 137.1904,359.2969 137.1904,359.2969 C137.1904,359.2969 203.8809,359.2969 203.8809,349.2969" fill="none" style="stroke:#181818;stroke-width:0.5;"/><text fill="#000000" font-family="DejaVu Sans" font-size="14" lengthAdjust="spacing" textLength="68.5781" x="80.5" y="376.292">UDR/UDM</text><text fill="#000000" font-family="DejaVu Sans" font-size="14" lengthAdjust="spacing" textLength="113.3809" x="80.5" y="392.5889">subscriber data,</text><text fill="#000000" font-family="DejaVu Sans" font-size="14" lengthAdjust="spacing" textLength="100.9668" x="80.5" y="408.8857">DNN, S-NSSAI,</text><text fill="#000000" font-family="DejaVu Sans" font-size="14" lengthAdjust="spacing" textLength="87.1924" x="80.5" y="425.1826">AMBR, URSP</text></g><!--entity PSTORE--><g class="entity" data-qualified-name="PSTORE" data-source-line="10" id="ent0004"><path d="M296,245.7969 C296,235.7969 362.0513,235.7969 362.0513,235.7969 C362.0513,235.7969 428.1025,235.7969 428.1025,245.7969 L428.1025,303.6875 C428.1025,313.6875 362.0513,313.6875 362.0513,313.6875 C362.0513,313.6875 296,313.6875 296,303.6875 L296,245.7969" fill="#F1F1F1" style="stroke:#181818;stroke-width:0.5;"/><path d="M296,245.7969 C296,255.7969 362.0513,255.7969 362.0513,255.7969 C362.0513,255.7969 428.1025,255.7969 428.1025,245.7969" fill="none" style="stroke:#181818;stroke-width:0.5;"/><text fill="#000000" font-family="DejaVu Sans" font-size="14" lengthAdjust="spacing" textLength="112.1025" x="306" y="272.792">PCF policy store</text><text fill="#000000" font-family="DejaVu Sans" font-size="14" lengthAdjust="spacing" textLength="96.0381" x="306" y="289.0889">rules, groups,</text><text fill="#000000" font-family="DejaVu Sans" font-size="14" lengthAdjust="spacing" textLength="103.4141" x="306" y="305.3857">QoS templates</text></g><!--entity PCF--><g class="entity" data-qualified-name="PCF" data-source-line="11" id="ent0005"><rect fill="#F1F1F1" height="52.5938" rx="2.5" ry="2.5" style="stroke:#181818;stroke-width:0.5;" width="180.8975" x="271.5" y="451.2969"/><text fill="#000000" font-family="DejaVu Sans" font-size="14" lengthAdjust="spacing" textLength="26.2705" x="281.5" y="474.292">PCF</text><text fill="#000000" font-family="DejaVu Sans" font-size="14" lengthAdjust="spacing" textLength="160.8975" x="281.5" y="490.5889">Policy Control Function</text></g><!--entity SMF--><g class="entity" data-qualified-name="SMF" data-source-line="12" id="ent0006"><rect fill="#F1F1F1" height="52.5938" rx="2.5" ry="2.5" style="stroke:#181818;stroke-width:0.5;" width="170.0898" x="116" y="589.2969"/><text fill="#000000" font-family="DejaVu Sans" font-size="14" lengthAdjust="spacing" textLength="29.0186" x="126" y="612.292">SMF</text><text fill="#000000" font-family="DejaVu Sans" font-size="14" lengthAdjust="spacing" textLength="150.0898" x="126" y="628.5889">Session Management</text></g><!--entity AMF--><g class="entity" data-qualified-name="AMF" data-source-line="13" id="ent0007"><rect fill="#F1F1F1" height="52.5938" rx="2.5" ry="2.5" style="stroke:#181818;stroke-width:0.5;" width="161.1689" x="49.5" y="697.2969"/><text fill="#000000" font-family="DejaVu Sans" font-size="14" lengthAdjust="spacing" textLength="29.709" x="59.5" y="720.292">AMF</text><text fill="#000000" font-family="DejaVu Sans" font-size="14" lengthAdjust="spacing" textLength="141.1689" x="59.5" y="736.5889">auth/access context</text></g><!--entity GNB--><g class="entity" data-qualified-name="GNB" data-source-line="14" id="ent0008"><rect fill="#F1F1F1" height="52.5938" rx="2.5" ry="2.5" style="stroke:#181818;stroke-width:0.5;" width="176.8096" x="37.5" y="820.2969"/><text fill="#000000" font-family="DejaVu Sans" font-size="14" lengthAdjust="spacing" textLength="28.9639" x="47.5" y="843.292">gNB</text><text fill="#000000" font-family="DejaVu Sans" font-size="14" lengthAdjust="spacing" textLength="156.8096" x="47.5" y="859.5889">RAN QoS enforcement</text></g><!--entity UPF--><g class="entity" data-qualified-name="UPF" data-source-line="15" id="ent0009"><rect fill="#F1F1F1" height="52.5938" rx="2.5" ry="2.5" style="stroke:#181818;stroke-width:0.5;" width="159.5215" x="108" y="928.2969"/><text fill="#000000" font-family="DejaVu Sans" font-size="14" lengthAdjust="spacing" textLength="26.7422" x="118" y="951.292">UPF</text><text fill="#000000" font-family="DejaVu Sans" font-size="14" lengthAdjust="spacing" textLength="139.5215" x="118" y="967.5889">User Plane Function</text></g><!--entity DN--><g class="entity" data-qualified-name="DN" data-source-line="16" id="ent0010"><path d="M133.0208,1061.088 C135.532,1054.3801 141.1778,1053.9287 145.3706,1059.3801 C148.3376,1054.9986 153.3253,1054.6276 155.5301,1060.1611 C157.9098,1054.1233 163.2796,1054.0574 167.1566,1058.5 C170.3402,1051.8273 175.7031,1051.7171 179.3104,1058.1057 C181.964,1053.8544 184.8369,1053.3879 188.3926,1057.0734 C192.203,1050.5376 196.1521,1052.146 200.2301,1056.79 C205.133,1051.9234 209.2864,1053.3327 211.7826,1059.3457 C214.852,1053.9855 218.6442,1054.3613 221.889,1059.1714 C226.1579,1054.696 230.4437,1054.145 233.4446,1060.5216 C236.7476,1054.4656 240.7145,1054.5198 244.411,1060.1523 C251.2756,1063.5651 253.719,1071.1827 245.5564,1075.7024 C253.2523,1080.5121 252.7832,1086.2979 245.3688,1090.9213 C242.456,1096.9903 237.8715,1096.7315 234.4543,1091.4043 C230.2297,1097.6782 226.2731,1096.0342 222.6195,1090.8163 C219.3745,1097.0334 214.9842,1097.6 210.3073,1092.3542 C207.4278,1096.5436 203.3772,1096.6108 200.3587,1092.5212 C198.5581,1098.0301 193.6103,1098.013 190.2207,1094.2607 C185.3878,1100.3172 181.3712,1099.4232 177.8444,1092.9686 C173.2154,1098.7609 169.2281,1097.9085 166.3265,1091.3568 C163.9386,1096.6206 159.2993,1096.7247 156.5484,1091.7018 C153.3532,1097.4358 147.3525,1097.3723 144.5516,1091.301 C140.7564,1094.9795 136.7172,1094.394 134.2432,1089.6784 C127.2951,1086.8797 125.0694,1081.5046 130.5333,1075.466 C124.4658,1070.008 125.0535,1064.1178 133.0208,1061.088" fill="#F1F1F1" style="stroke:#181818;stroke-width:0.5;"/><text fill="#000000" font-family="DejaVu Sans" font-size="14" lengthAdjust="spacing" textLength="96.332" x="140" y="1079.292">Data Network</text></g><g class="entity" data-qualified-name="GMN22" data-source-line="31" id="ent0023"><path d="M6,1134.2969 L6,1204.8281 A0,0 0 0 0 6,1204.8281 L369.9194,1204.8281 A0,0 0 0 0 369.9194,1204.8281 L369.9194,1144.2969 L359.9194,1134.2969 L192,1134.2969 L188,1097.4551 L184,1134.2969 L6,1134.2969 A0,0 0 0 0 6,1134.2969" fill="#FEFFDD" style="stroke:#181818;stroke-width:0.5;"/><path d="M359.9194,1134.2969 L359.9194,1144.2969 L369.9194,1144.2969 L359.9194,1134.2969" fill="#FEFFDD" style="stroke:#181818;stroke-width:0.5;"/><text fill="#000000" font-family="DejaVu Sans" font-size="13" lengthAdjust="spacing" textLength="241.6426" x="12" y="1151.3638">&#1042; 5G &#1082;&#1086;&#1085;&#1092;&#1080;&#1075;&#1091;&#1088;&#1072;&#1094;&#1080;&#1103; &#1088;&#1072;&#1089;&#1087;&#1088;&#1077;&#1076;&#1077;&#1083;&#1077;&#1085;&#1072;:</text><text fill="#000000" font-family="DejaVu Sans" font-size="13" lengthAdjust="spacing" textLength="317.2178" x="12" y="1166.4966">UDM/UDR &#1093;&#1088;&#1072;&#1085;&#1080;&#1090; &#1087;&#1086;&#1076;&#1087;&#1080;&#1089;&#1082;&#1091;, PCF &#1093;&#1088;&#1072;&#1085;&#1080;&#1090; policy,</text><text fill="#000000" font-family="DejaVu Sans" font-size="13" lengthAdjust="spacing" textLength="342.9194" x="12" y="1181.6294">SMF &#1089;&#1090;&#1088;&#1086;&#1080;&#1090; &#1089;&#1077;&#1089;&#1089;&#1080;&#1102;, UPF &#1087;&#1088;&#1080;&#1084;&#1077;&#1085;&#1103;&#1077;&#1090; QoS &#1085;&#1072; N6/N3,</text><text fill="#000000" font-family="DejaVu Sans" font-size="13" lengthAdjust="spacing" textLength="244.7212" x="12" y="1196.7622">gNB &#1087;&#1088;&#1080;&#1084;&#1077;&#1085;&#1103;&#1077;&#1090; &#1087;&#1088;&#1080;&#1086;&#1088;&#1080;&#1090;&#1077;&#1090; &#1074; &#1088;&#1072;&#1076;&#1080;&#1086;.</text></g><g class="link" data-entity-1="ent0001" data-entity-2="ent0003" data-link-type="dependency" id="lnk11"><polygon fill="#181818" points="123.7723,338.8951,125.7164,329.24,122.6835,334.0151,117.9084,330.9822,123.7723,338.8951" style="stroke:#181818;stroke-width:1;stroke-linejoin:miter;stroke-miterlimit:10;"/><path d="M195.9244,123.8797 C172.5316,135.2536 147.3624,152.2545 134,176.2969 C106.1466,226.4125 112.7286,289.399 122.6835,334.0151" fill="none" style="stroke:#181818;stroke-width:1;"/><text fill="#000000" font-family="DejaVu Sans" font-size="13" lengthAdjust="spacing" textLength="198.6626" x="136" y="197.8638">provision subscriber/slice/DNN</text></g><g class="link" data-entity-1="ent0001" data-entity-2="ent0004" data-link-type="dependency" id="lnk12"><polygon fill="#181818" points="359.3856,235.3884,362.0593,225.9094,358.6715,230.4396,354.1413,227.0519,359.3856,235.3884" style="stroke:#181818;stroke-width:1;stroke-linejoin:miter;stroke-miterlimit:10;"/><path d="M302.4598,137.0793 C316.542,147.9304 330.4504,161.1786 340,176.2969 C351.1205,193.902 355.9355,211.4769 358.6715,230.4396" fill="none" style="stroke:#181818;stroke-width:1;"/><text fill="#000000" font-family="DejaVu Sans" font-size="13" lengthAdjust="spacing" textLength="132.9009" x="377.7312" y="190.3638">create policy groups</text><text fill="#000000" font-family="DejaVu Sans" font-size="13" lengthAdjust="spacing" textLength="176.3633" x="356" y="205.4966">premium, enterprise, voice</text></g><g class="link" data-entity-1="ent0002" data-entity-2="ent0005" data-link-type="dependency" id="lnk13"><polygon fill="#181818" points="385.4649,451.024,394.4816,447.0619,388.831,447.3268,388.5661,441.6762,385.4649,451.024" style="stroke:#181818;stroke-width:1;stroke-linejoin:miter;stroke-miterlimit:10;"/><path d="M503.4745,321.4069 C466.9872,361.483 418.5723,414.6601 388.831,447.3268" fill="none" style="stroke:#181818;stroke-width:1;"/><text fill="#000000" font-family="DejaVu Sans" font-size="13" lengthAdjust="spacing" textLength="102.4766" x="490.1865" y="383.3638">N5/N33 request</text><text fill="#000000" font-family="DejaVu Sans" font-size="13" lengthAdjust="spacing" textLength="108.8496" x="487" y="398.4966">app-specific QoS</text></g><g class="link" data-entity-1="ent0003" data-entity-2="ent0006" data-link-type="dependency" id="lnk14"><polygon fill="#181818" points="184.6591,589.1523,183.4886,579.3733,182.0998,584.857,176.616,583.4682,184.6591,589.1523" style="stroke:#181818;stroke-width:1;stroke-linejoin:miter;stroke-miterlimit:10;"/><path d="M136.4896,433.5604 C137.2751,455.3582 139.7124,481.5166 146,504.2969 C154.4951,535.0753 169.1739,563.1634 182.0998,584.857" fill="none" style="stroke:#181818;stroke-width:1;"/><text fill="#000000" font-family="DejaVu Sans" font-size="13" lengthAdjust="spacing" textLength="112.709" x="148" y="482.3638">subscription data</text></g><g class="link" data-entity-1="ent0004" data-entity-2="ent0005" data-link-type="dependency" id="lnk15"><polygon fill="#181818" points="362,451.0984,366,442.0984,362,446.0984,358,442.0984,362,451.0984" style="stroke:#181818;stroke-width:1;stroke-linejoin:miter;stroke-miterlimit:10;"/><path d="M362,314.0766 C362,354.2843 362,411.3977 362,446.0984" fill="none" style="stroke:#181818;stroke-width:1;"/></g><g class="link" data-entity-1="ent0005" data-entity-2="ent0006" data-link-type="dependency" id="lnk16"><polygon fill="#181818" points="231.4203,589.1002,240.8769,586.3482,235.24,585.8737,235.7145,580.2367,231.4203,589.1002" style="stroke:#181818;stroke-width:1;stroke-linejoin:miter;stroke-miterlimit:10;"/><path d="M331.7171,504.3774 C303.024,528.6151 263.9783,561.5978 235.24,585.8737" fill="none" style="stroke:#181818;stroke-width:1;"/><text fill="#000000" font-family="DejaVu Sans" font-size="13" lengthAdjust="spacing" textLength="90.5239" x="339.3838" y="536.3638">N7 PCC policy</text><text fill="#000000" font-family="DejaVu Sans" font-size="13" lengthAdjust="spacing" textLength="145.2915" x="312" y="551.4966">5QI, ARP, GFBR/MFBR,</text><text fill="#000000" font-family="DejaVu Sans" font-size="13" lengthAdjust="spacing" textLength="142.0352" x="313.6282" y="566.6294">Session-AMBR, gating</text></g><g class="link" data-entity-1="ent0006" data-entity-2="ent0007" data-link-type="dependency" id="lnk17"><polygon fill="#181818" points="133.7346,697.2896,139.5686,689.3547,134.805,692.4056,131.7541,687.642,133.7346,697.2896" style="stroke:#181818;stroke-width:1;stroke-linejoin:miter;stroke-miterlimit:10;"/><path d="M163.6178,642.5136 C157.7632,647.8474 152.253,653.8332 148,660.2969 C140.7381,671.3334 137.4247,680.4526 134.805,692.4056" fill="none" style="stroke:#181818;stroke-width:1;"/><text fill="#000000" font-family="DejaVu Sans" font-size="13" lengthAdjust="spacing" textLength="79.625" x="150" y="674.3638">N11 context</text></g><g class="link" data-entity-1="ent0007" data-entity-2="ent0008" data-link-type="dependency" id="lnk18"><polygon fill="#181818" points="124.7729,820.296,128.471,811.1678,124.6064,815.2988,120.4755,811.4342,124.7729,820.296" style="stroke:#181818;stroke-width:1;stroke-linejoin:miter;stroke-miterlimit:10;"/><path d="M126.5504,750.5169 C125.9053,756.3519 125.3304,762.529 125,768.2969 C124.0073,785.6267 124.1025,800.173 124.6064,815.2988" fill="none" style="stroke:#181818;stroke-width:1;"/><text fill="#000000" font-family="DejaVu Sans" font-size="13" lengthAdjust="spacing" textLength="94.0469" x="127" y="789.8638">N2 QoS profile</text></g><g class="link" data-entity-1="ent0006" data-entity-2="ent0009" data-link-type="dependency" id="lnk19"><polygon fill="#181818" points="219.4982,928.193,228.4268,924.0361,222.7832,924.4236,222.3957,918.78,219.4982,928.193" style="stroke:#181818;stroke-width:1;stroke-linejoin:miter;stroke-miterlimit:10;"/><path d="M222.4739,642.6082 C225.9826,648.1348 229.0907,654.1655 231,660.2969 C264.0345,766.3836 273.2235,807.5211 231,910.2969 C228.3367,916.7797 227.4736,919.0417 222.7832,924.4236" fill="none" style="stroke:#181818;stroke-width:1;"/><text fill="#000000" font-family="DejaVu Sans" font-size="13" lengthAdjust="spacing" textLength="58.4746" x="298.8323" y="782.3638">N4 rules:</text><text fill="#000000" font-family="DejaVu Sans" font-size="13" lengthAdjust="spacing" textLength="132.1392" x="262" y="797.4966">PDR, FAR, QER, URR</text></g><g class="link" data-entity-1="ent0008" data-entity-2="ent0009" data-link-type="dependency" id="lnk20"><polygon fill="#181818" points="151.4642,928.2521,147.743,919.1333,147.8577,924.789,142.202,924.9037,151.4642,928.2521" style="stroke:#181818;stroke-width:1;stroke-linejoin:miter;stroke-miterlimit:10;"/><path d="M126.5795,873.4742 C127.8031,885.3294 130.6563,899.2022 137,910.2969 C140.7547,916.8636 142.2841,919.4369 147.8577,924.789" fill="none" style="stroke:#181818;stroke-width:1;"/><text fill="#000000" font-family="DejaVu Sans" font-size="13" lengthAdjust="spacing" textLength="90.6826" x="139" y="905.3638">N3 user plane</text></g><g class="link" data-entity-1="ent0009" data-entity-2="ent0010" data-link-type="dependency" id="lnk21"><polygon fill="#181818" points="188,1051.1292,192,1042.1292,188,1046.1292,184,1042.1292,188,1051.1292" style="stroke:#181818;stroke-width:1;stroke-linejoin:miter;stroke-miterlimit:10;"/><path d="M188,981.5827 C188,1002.3896 188,1026.3525 188,1046.1292" fill="none" style="stroke:#181818;stroke-width:1;"/><text fill="#000000" font-family="DejaVu Sans" font-size="13" lengthAdjust="spacing" textLength="72.998" x="232.1357" y="1013.3638">N6 routing,</text><text fill="#000000" font-family="DejaVu Sans" font-size="13" lengthAdjust="spacing" textLength="157.2695" x="190" y="1028.4966">DSCP, QoS enforcement</text></g><?plantuml-src RLJ1Rjms4BtpAwO-Qxj8NRV07W9eTxE6WQuYIzsUTA6rN4MDHAgYbDItscvwAXAWNsAaMM2RrCulK7_KHsfjoqKkXCHvV9nvRpXVLJNFIau5FrTjGxeK3PUSwPUvh7ZDIqfLMIafP1CtvuMWMgG0P8KOGFGBlbQlSvdHXXTw65cB3M-BPg5a4_1Iq5pyp7zgAUPIioPlm7TqJ3DLYmcP3sRRNPfhywdxqzoOw-uTTHVT6xCr_vfhwgxCv-utHD-RJzYwCJl4pKTpQswwtytE_DrTsN3t1xwtvXyoEpfLCMCyRLHD1y_ZU3oDuqIclE65oZngU9rlDjfBR6cYhkfS2uf_y0-8QmByxgHVLKMEKxcIj6XbQZyIURACFSfuYPez6X3mgd84VXYoDQuwuzWyMCsZyMg-JAHkptHQvsUY9Xl5vVCWy2WU1N7id-3NNquZZrPH73eQ71hGXBC5LGhPd9D6RYAHTLi8ZKHgrLQs59HCZIYhWZT2EuOm_l5vz8pTk-PO4XdsD3FuKglYlh3-o6mnnCTBu6EXjLLWYTx8H8cA7HIn8TItKDusByOyJN42lGDfVksn_cDi5amJ6Vc1jGaARbITFl0U1zCXTXM2TwMXMbXmAHwdYo1B2zMkwM0EgIWGpMjLltInUS0OlAJHwAdLaYPKrUfLxafvy6Ai8OOOmufxS2yRy6ajeEMTxBtGYQngKUPjERJUerSAB0pEzmmmQqB1qJWuFCIZ-QKLke4uLJNIbKZpJPww1hLPMJYK17oVK-MwpHhFzedi6PbbVO07tsDpjaykaKUd9nxvKUZHyM8QZPTOl7lhHdrhPUXacJ5xtlBuFS-J9tTMCNyVWGKsyetp1wfjSZpvksFGt0Q_9TU04_JJ7DmB7ylfCzV04RC40-mXjTR0oXh8x9wDpGCR-euWgqtBleTuXlp_rnECIGKJpbJJg9APl-pG-FBRjqF3VbwuQR6rCsK_BwudLciymuYwDswIs1boIUOpU3vWtU7Gn-xASyuzWlJwUgvwZAHBX6vT02UssBZ0prlF5UgktM5YuShkdHrehXPxF-f4BtWCZVybs7xhrguOWsxhlIi6sM7_QoRacgmE_m40?></g></svg>