<svg xmlns="http://www.w3.org/2000/svg" xmlns:xlink="http://www.w3.org/1999/xlink" contentStyleType="text/css" data-diagram-type="DESCRIPTION" height="559px" preserveAspectRatio="none" style="width:1635px;height:559px;background:#FFFFFF;" version="1.1" viewBox="0 0 1635 559" width="1635px" zoomAndPan="magnify"><?plantuml 1.2026.4?><defs/><g><g class="title" data-source-line="5"><text fill="#000000" font-family="DejaVu Sans" font-size="14" font-weight="700" lengthAdjust="spacing" textLength="411.8311" x="608.3345" y="22.9951">LTE Radio/RAN: &#1076;&#1077;&#1090;&#1072;&#1083;&#1100;&#1085;&#1072;&#1103; QoS-&#1084;&#1077;&#1093;&#1072;&#1085;&#1080;&#1082;&#1072; &#1074; eNodeB</text></g><!--cluster RB--><g class="cluster" data-qualified-name="RB" data-source-line="8" id="ent0002"><rect fill="none" height="94" rx="2.5" ry="2.5" style="stroke:#181818;stroke-width:1;" width="466" x="1153.5" y="350.2969"/><text fill="#000000" font-family="DejaVu Sans" font-size="14" font-weight="700" lengthAdjust="spacing" textLength="139.1729" x="1316.9136" y="365.292">LTE radio bearers</text></g><!--cluster ENB--><g class="cluster" data-qualified-name="ENB" data-source-line="13" id="ent0006"><polygon fill="none" points="236.5,198.2969,246.5,188.2969,1145.5,188.2969,1145.5,431.2969,1135.5,441.2969,236.5,441.2969,236.5,198.2969" style="stroke:#181818;stroke-width:1;stroke-linejoin:miter;stroke-miterlimit:10;"/><line style="stroke:#181818;stroke-width:1;" x1="1135.5" x2="1145.5" y1="198.2969" y2="188.2969"/><line style="stroke:#181818;stroke-width:1;" x1="236.5" x2="1135.5" y1="198.2969" y2="198.2969"/><line style="stroke:#181818;stroke-width:1;" x1="1135.5" x2="1135.5" y1="198.2969" y2="441.2969"/><text fill="#000000" font-family="DejaVu Sans" font-size="14" font-weight="700" lengthAdjust="spacing" textLength="177.8301" x="598.085" y="214.292">eNodeB RAN functions</text></g><!--entity UE--><g class="entity" data-qualified-name="UE" data-source-line="7" id="ent0001"><ellipse cx="1289.5" cy="233.2969" fill="#F1F1F1" rx="8" ry="8" style="stroke:#181818;stroke-width:0.5;"/><path d="M1289.5,241.2969 L1289.5,268.2969 M1276.5,249.2969 L1302.5,249.2969 M1289.5,268.2969 L1276.5,283.2969 M1289.5,268.2969 L1302.5,283.2969" fill="none" style="stroke:#181818;stroke-width:0.5;"/><text fill="#000000" font-family="DejaVu Sans" font-size="14" lengthAdjust="spacing" textLength="19.0928" x="1279.9536" y="297.792">UE</text></g><!--entity POL--><g class="entity" data-qualified-name="POL" data-source-line="21" id="ent0013"><path d="M6,59.2969 C6,49.2969 104.6177,49.2969 104.6177,49.2969 C104.6177,49.2969 203.2354,49.2969 203.2354,59.2969 L203.2354,133.4844 C203.2354,143.4844 104.6177,143.4844 104.6177,143.4844 C104.6177,143.4844 6,143.4844 6,133.4844 L6,59.2969" fill="#F1F1F1" style="stroke:#181818;stroke-width:0.5;"/><path d="M6,59.2969 C6,69.2969 104.6177,69.2969 104.6177,69.2969 C104.6177,69.2969 203.2354,69.2969 203.2354,59.2969" fill="none" style="stroke:#181818;stroke-width:0.5;"/><text fill="#000000" font-family="DejaVu Sans" font-size="14" lengthAdjust="spacing" textLength="88.5254" x="16" y="86.292">Policy inputs</text><text fill="#000000" font-family="DejaVu Sans" font-size="14" lengthAdjust="spacing" textLength="177.2354" x="16" y="102.5889">from EPC bearer context:</text><text fill="#000000" font-family="DejaVu Sans" font-size="14" lengthAdjust="spacing" textLength="145.4141" x="16" y="118.8857">QCI, ARP, GBR, MBR,</text><text fill="#000000" font-family="DejaVu Sans" font-size="14" lengthAdjust="spacing" textLength="108.5889" x="16" y="135.1826">APN-AMBR, TFT</text></g><!--entity AIR--><g class="entity" data-qualified-name="AIR" data-source-line="22" id="ent0014"><path d="M471.166,73.5841 C475.4922,67.07 480.4234,65.4802 485.679,72.5943 C489.8015,65.7408 494.9158,66.4428 498.8578,72.7748 C504.8157,65.0898 509.6651,67.1739 514.2321,74.2259 C518.5102,67.2908 526.2061,65.5972 531.0468,73.5923 C535.4491,65.6029 541.0674,66.3474 545.9407,73.117 C549.8044,66.8891 554.9013,67.3949 558.5488,73.3408 C562.9847,63.2787 569.6647,63.6674 576.2298,71.2012 C580.3731,65.8924 585.8841,67.3534 588.5505,72.8805 C593.2104,64.109 599.9206,65.1942 605.1613,72.2718 C610.2857,65.043 617.1816,67.7462 620.2705,74.4752 C623.3065,66.4195 628.1719,65.7829 633.6894,72.1695 C638.9902,64.0732 644.3884,64.741 648.8645,72.9377 C654.2084,65.8336 660.8587,64.7187 665.7473,73.424 C670.4239,68.3546 674.6703,67.6168 678.7983,74.0466 C694.5272,76.2571 696.5275,86.376 689.9465,98.6823 C697.7588,109.6357 695.087,119.8124 680.4864,121.4554 C676.995,128.8041 669.7724,130.1706 665.2923,122.4524 C659.381,130.5708 654.1815,130.3012 648.409,122.3069 C645.0662,129.0932 637.7465,129.2438 633.4115,123.4939 C629.5622,130.0537 624.6057,130.831 619.0816,125.5147 C615.3001,133.3423 610.1652,132.1876 605.4115,126.498 C601.1983,132.4447 595.1931,132.985 590.7688,126.7518 C586.795,134.6558 581.0304,134.233 575.8642,128.0099 C571.3999,135.0111 564.7099,137.4245 559.2587,129.0777 C554.338,134.8527 547.9918,135.6404 544.3167,127.7189 C539.2565,133.0189 532.8393,132.8131 530.5721,124.829 C525.9154,131.7505 519.0803,130.2737 515.4328,123.697 C511.0156,130.904 504.8452,129.6104 500.5507,123.5594 C495.4031,130.3264 489.4552,130.1001 485.8398,122.0393 C479.3562,128.9151 473.3253,128.3734 469.1466,119.5833 C455.3645,118.2364 453.0801,109.6831 458.6196,98.6293 C450.5716,85.9147 457.3109,75.3262 471.166,73.5841" fill="#F1F1F1" style="stroke:#181818;stroke-width:0.5;"/><text fill="#000000" font-family="DejaVu Sans" font-size="14" lengthAdjust="spacing" textLength="112.5605" x="475.5" y="92.792">Radio resources</text><text fill="#000000" font-family="DejaVu Sans" font-size="14" lengthAdjust="spacing" textLength="195.8838" x="475.5" y="109.0889">PRB, PDCCH, PUSCH/PDSCH</text></g><g class="entity" data-qualified-name="GMN31" data-source-line="42" id="ent0032"><path d="M314,473.2969 L314,558.9609 A0,0 0 0 0 314,558.9609 L757.1509,558.9609 A0,0 0 0 0 757.1509,558.9609 L757.1509,483.2969 L747.1509,473.2969 L539.5,473.2969 L535.5,433.5458 L531.5,473.2969 L314,473.2969 A0,0 0 0 0 314,473.2969" fill="#FEFFDD" style="stroke:#181818;stroke-width:0.5;"/><path d="M747.1509,473.2969 L747.1509,483.2969 L757.1509,483.2969 L747.1509,473.2969" fill="#FEFFDD" style="stroke:#181818;stroke-width:0.5;"/><text fill="#000000" font-family="DejaVu Sans" font-size="13" lengthAdjust="spacing" textLength="113.2739" x="320" y="490.3638">&#1055;&#1088;&#1080; &#1087;&#1077;&#1088;&#1077;&#1075;&#1088;&#1091;&#1079;&#1082;&#1077;:</text><text fill="#000000" font-family="DejaVu Sans" font-size="13" lengthAdjust="spacing" textLength="422.1509" x="320" y="505.4966">1) GBR bearers &#1091;&#1076;&#1077;&#1088;&#1078;&#1080;&#1074;&#1072;&#1102;&#1090; minimum bitrate &#1087;&#1086;&#1089;&#1083;&#1077; admission,</text><text fill="#000000" font-family="DejaVu Sans" font-size="13" lengthAdjust="spacing" textLength="215.7441" x="332.397" y="520.6294">&#1077;&#1089;&#1083;&#1080; radio capacity &#1076;&#1086;&#1089;&#1090;&#1072;&#1090;&#1086;&#1095;&#1085;&#1072;.</text><text fill="#000000" font-family="DejaVu Sans" font-size="13" lengthAdjust="spacing" textLength="402.2319" x="320" y="535.7622">2) &#1055;&#1072;&#1082;&#1077;&#1090;&#1099; &#1089; &#1088;&#1080;&#1089;&#1082;&#1086;&#1084; &#1085;&#1072;&#1088;&#1091;&#1096;&#1077;&#1085;&#1080;&#1103; delay budget &#1080;&#1076;&#1091;&#1090; &#1088;&#1072;&#1085;&#1100;&#1096;&#1077;.</text><text fill="#000000" font-family="DejaVu Sans" font-size="13" lengthAdjust="spacing" textLength="287.2505" x="320" y="550.895">3) Best effort &#1089;&#1085;&#1080;&#1078;&#1072;&#1077;&#1090; throughput &#1087;&#1077;&#1088;&#1074;&#1099;&#1084;.</text></g><!--entity QCI1--><g class="entity" data-qualified-name="RB.QCI1" data-source-line="9" id="ent0003"><path d="M1490.5,377.2969 L1606.1904,377.2969 C1611.1904,377.2969 1611.1904,406.7422 1611.1904,406.7422 C1611.1904,406.7422 1611.1904,436.1875 1606.1904,436.1875 L1490.5,436.1875 C1485.5,436.1875 1485.5,406.7422 1485.5,406.7422 C1485.5,406.7422 1485.5,377.2969 1490.5,377.2969" fill="#F1F1F1" style="stroke:#181818;stroke-width:0.5;"/><path d="M1606.1904,377.2969 C1601.1904,377.2969 1601.1904,406.7422 1601.1904,406.7422 C1601.1904,436.1875 1606.1904,436.1875 1606.1904,436.1875" fill="none" style="stroke:#181818;stroke-width:0.5;"/><text fill="#000000" font-family="DejaVu Sans" font-size="14" lengthAdjust="spacing" textLength="77.5605" x="1490.5" y="395.292">DRB: QCI 1</text><text fill="#000000" font-family="DejaVu Sans" font-size="14" lengthAdjust="spacing" textLength="74.5117" x="1490.5" y="411.5889">VoLTE RTP</text><text fill="#000000" font-family="DejaVu Sans" font-size="14" lengthAdjust="spacing" textLength="105.6904" x="1490.5" y="427.8857">GBR, low delay</text></g><!--entity QCI5--><g class="entity" data-qualified-name="RB.QCI5" data-source-line="10" id="ent0004"><path d="M1296.5,377.2969 L1462.4346,377.2969 C1467.4346,377.2969 1467.4346,406.7422 1467.4346,406.7422 C1467.4346,406.7422 1467.4346,436.1875 1462.4346,436.1875 L1296.5,436.1875 C1291.5,436.1875 1291.5,406.7422 1291.5,406.7422 C1291.5,406.7422 1291.5,377.2969 1296.5,377.2969" fill="#F1F1F1" style="stroke:#181818;stroke-width:0.5;"/><path d="M1462.4346,377.2969 C1457.4346,377.2969 1457.4346,406.7422 1457.4346,406.7422 C1457.4346,436.1875 1462.4346,436.1875 1462.4346,436.1875" fill="none" style="stroke:#181818;stroke-width:0.5;"/><text fill="#000000" font-family="DejaVu Sans" font-size="14" lengthAdjust="spacing" textLength="77.5605" x="1296.5" y="395.292">DRB: QCI 5</text><text fill="#000000" font-family="DejaVu Sans" font-size="14" lengthAdjust="spacing" textLength="92.6064" x="1296.5" y="411.5889">IMS signaling</text><text fill="#000000" font-family="DejaVu Sans" font-size="14" lengthAdjust="spacing" textLength="155.9346" x="1296.5" y="427.8857">non-GBR, high priority</text></g><!--entity QCI9--><g class="entity" data-qualified-name="RB.QCI9" data-source-line="11" id="ent0005"><path d="M1166.5,377.2969 L1268.3203,377.2969 C1273.3203,377.2969 1273.3203,406.7422 1273.3203,406.7422 C1273.3203,406.7422 1273.3203,436.1875 1268.3203,436.1875 L1166.5,436.1875 C1161.5,436.1875 1161.5,406.7422 1161.5,406.7422 C1161.5,406.7422 1161.5,377.2969 1166.5,377.2969" fill="#F1F1F1" style="stroke:#181818;stroke-width:0.5;"/><path d="M1268.3203,377.2969 C1263.3203,377.2969 1263.3203,406.7422 1263.3203,406.7422 C1263.3203,436.1875 1268.3203,436.1875 1268.3203,436.1875" fill="none" style="stroke:#181818;stroke-width:0.5;"/><text fill="#000000" font-family="DejaVu Sans" font-size="14" lengthAdjust="spacing" textLength="77.5605" x="1166.5" y="395.292">DRB: QCI 9</text><text fill="#000000" font-family="DejaVu Sans" font-size="14" lengthAdjust="spacing" textLength="91.8203" x="1166.5" y="411.5889">Internet data</text><text fill="#000000" font-family="DejaVu Sans" font-size="14" lengthAdjust="spacing" textLength="73.0146" x="1166.5" y="427.8857">best effort</text></g><!--entity ADM--><g class="entity" data-qualified-name="ENB.ADM" data-source-line="14" id="ent0007"><rect fill="#F1F1F1" height="68.8906" rx="2.5" ry="2.5" style="stroke:#181818;stroke-width:0.5;" width="161.8389" x="975.5" y="228.2969"/><text fill="#000000" font-family="DejaVu Sans" font-size="14" lengthAdjust="spacing" textLength="141.8389" x="985.5" y="251.292">RRC/RRM Admission</text><text fill="#000000" font-family="DejaVu Sans" font-size="14" lengthAdjust="spacing" textLength="140.4375" x="985.5" y="267.5889">&#1087;&#1088;&#1086;&#1074;&#1077;&#1088;&#1082;&#1072; PRB load,</text><text fill="#000000" font-family="DejaVu Sans" font-size="14" lengthAdjust="spacing" textLength="120.9141" x="985.5" y="283.8857">GBR budget, ARP</text></g><!--entity RLC--><g class="entity" data-qualified-name="ENB.RLC" data-source-line="15" id="ent0008"><rect fill="#F1F1F1" height="85.1875" rx="2.5" ry="2.5" style="stroke:#181818;stroke-width:0.5;" width="121.2539" x="836" y="220.2969"/><text fill="#000000" font-family="DejaVu Sans" font-size="14" lengthAdjust="spacing" textLength="81.0332" x="846" y="243.292">RLC buffers</text><text fill="#000000" font-family="DejaVu Sans" font-size="14" lengthAdjust="spacing" textLength="101.2539" x="846" y="259.5889">segmentation,</text><text fill="#000000" font-family="DejaVu Sans" font-size="14" lengthAdjust="spacing" textLength="78.0459" x="846" y="275.8857">reordering,</text><text fill="#000000" font-family="DejaVu Sans" font-size="14" lengthAdjust="spacing" textLength="92.8252" x="846" y="292.1826">discard timer</text></g><!--entity SCH--><g class="entity" data-qualified-name="ENB.SCH" data-source-line="16" id="ent0009"><rect fill="#F1F1F1" height="52.5938" rx="2.5" ry="2.5" style="stroke:#181818;stroke-width:0.5;" width="206.9219" x="432" y="380.2969"/><text fill="#000000" font-family="DejaVu Sans" font-size="14" lengthAdjust="spacing" textLength="186.9219" x="442" y="403.292">QoS-aware MAC Scheduler</text><text fill="#000000" font-family="DejaVu Sans" font-size="14" lengthAdjust="spacing" textLength="171.9307" x="442" y="419.5889">priority + fairness + CQI</text></g><!--entity HARQ--><g class="entity" data-qualified-name="ENB.HARQ" data-source-line="17" id="ent0010"><rect fill="#F1F1F1" height="52.5938" rx="2.5" ry="2.5" style="stroke:#181818;stroke-width:0.5;" width="149.9375" x="474.5" y="236.2969"/><text fill="#000000" font-family="DejaVu Sans" font-size="14" lengthAdjust="spacing" textLength="108.2266" x="484.5" y="259.292">HARQ manager</text><text fill="#000000" font-family="DejaVu Sans" font-size="14" lengthAdjust="spacing" textLength="129.9375" x="484.5" y="275.5889">ACK/NACK repeats</text></g><!--entity LA--><g class="entity" data-qualified-name="ENB.LA" data-source-line="18" id="ent0011"><rect fill="#F1F1F1" height="52.5938" rx="2.5" ry="2.5" style="stroke:#181818;stroke-width:0.5;" width="211.7344" x="244.5" y="236.2969"/><text fill="#000000" font-family="DejaVu Sans" font-size="14" lengthAdjust="spacing" textLength="109.9355" x="254.5" y="259.292">Link Adaptation</text><text fill="#000000" font-family="DejaVu Sans" font-size="14" lengthAdjust="spacing" textLength="191.7344" x="254.5" y="275.5889">CQI -&gt; MCS, rank, PRB cost</text></g><!--entity RRM--><g class="entity" data-qualified-name="ENB.RRM" data-source-line="19" id="ent0012"><rect fill="#F1F1F1" height="52.5938" rx="2.5" ry="2.5" style="stroke:#181818;stroke-width:0.5;" width="174.5469" x="643" y="236.2969"/><text fill="#000000" font-family="DejaVu Sans" font-size="14" lengthAdjust="spacing" textLength="154.5469" x="653" y="259.292">Interference / Mobility</text><text fill="#000000" font-family="DejaVu Sans" font-size="14" lengthAdjust="spacing" textLength="141.9619" x="653" y="275.5889">ICIC, eICIC, MLB, HO</text></g><g class="link" data-entity-1="ent0001" data-entity-2="ent0003" data-link-type="dependency" id="lnk15"><polygon fill="#181818" points="1514.4646,377.0618,1509.856,368.3578,1510.5319,373.9741,1504.9156,374.6501,1514.4646,377.0618" style="stroke:#181818;stroke-width:1;stroke-linejoin:miter;stroke-miterlimit:10;"/><path d="M1303.1719,268.898 C1334.8016,280.9568 1415.017,313.0248 1476.5,350.2969 C1489.4565,358.1513 1498.8879,364.8319 1510.5319,373.9741" fill="none" style="stroke:#181818;stroke-width:1;"/></g><g class="link" data-entity-1="ent0001" data-entity-2="ent0004" data-link-type="dependency" id="lnk16"><polygon fill="#181818" points="1394.4269,377.0222,1401.4044,370.0714,1396.2307,372.3589,1393.9432,367.1852,1394.4269,377.0222" style="stroke:#181818;stroke-width:1;stroke-linejoin:miter;stroke-miterlimit:10;"/><path d="M1303.3405,266.8171 C1327.1755,272.8486 1375.3482,288.8759 1395.5,323.2969 C1405.0089,339.5389 1402.6757,355.6973 1396.2307,372.3589" fill="none" style="stroke:#181818;stroke-width:1;"/></g><g class="link" data-entity-1="ent0001" data-entity-2="ent0005" data-link-type="dependency" id="lnk17"><polygon fill="#181818" points="1203.6179,377.2936,1204.3125,367.4692,1201.9145,372.5927,1196.791,370.1947,1203.6179,377.2936" style="stroke:#181818;stroke-width:1;stroke-linejoin:miter;stroke-miterlimit:10;"/><path d="M1275.7898,268.4539 C1255.4569,276.1947 1218.0404,293.8414 1202.5,323.2969 C1193.7369,339.9064 1195.9108,356.0243 1201.9145,372.5927" fill="none" style="stroke:#181818;stroke-width:1;"/></g><g class="link" data-entity-1="ent0013" data-entity-2="ent0007" data-link-type="dependency" id="lnk18"><polygon fill="#181818" points="1024.6387,228.1818,1020.7162,219.1478,1020.9563,224.7995,1015.3045,225.0396,1024.6387,228.1818" style="stroke:#181818;stroke-width:1;stroke-linejoin:miter;stroke-miterlimit:10;"/><path d="M203.0753,111.5516 C272.4509,121.2929 367.536,134.0607 451.5,143.2969 C565.4717,155.8339 859.164,145.4089 965.5,188.2969 C987.5358,197.1845 1004.755,209.9185 1020.9563,224.7995" fill="none" style="stroke:#181818;stroke-width:1;"/></g><g class="link" data-entity-1="ent0007" data-entity-2="ent0003" data-link-type="dependency" id="lnk19"><polygon fill="#181818" points="1519.8618,377.1093,1515.59,368.235,1516.0503,373.8731,1510.4122,374.3334,1519.8618,377.1093" style="stroke:#181818;stroke-width:1;stroke-linejoin:miter;stroke-miterlimit:10;"/><path d="M1137.7265,297.0048 C1187.8404,317.2305 1244.8903,339.6827 1257.5,342.2969 C1305.1851,352.1829 1430.697,333.7533 1476.5,350.2969 C1492.3831,356.0337 1503.7557,363.4345 1516.0503,373.8731" fill="none" style="stroke:#181818;stroke-width:1;"/><text fill="#000000" font-family="DejaVu Sans" font-size="13" lengthAdjust="spacing" textLength="166.3911" x="1259.5" y="337.3638">accept / reject / pre-empt</text></g><g class="link" data-entity-1="ent0007" data-entity-2="ent0004" data-link-type="dependency" id="lnk20"><polygon fill="#181818" points="1338.3202,377.128,1332.7329,369.0174,1334.0559,374.5174,1328.5559,375.8403,1338.3202,377.128" style="stroke:#181818;stroke-width:1;stroke-linejoin:miter;stroke-miterlimit:10;"/><path d="M1107.0292,297.3728 C1134.1896,313.7295 1168.9219,332.0386 1202.5,342.2969 C1236.6737,352.7371 1248.4669,339.407 1282.5,350.2969 C1301.903,356.5054 1317.4432,364.3471 1334.0559,374.5174" fill="none" style="stroke:#181818;stroke-width:1;"/></g><g class="link" data-entity-1="ent0007" data-entity-2="ent0005" data-link-type="dependency" id="lnk21"><polygon fill="#181818" points="1187.5296,377.0203,1183.2746,368.1381,1183.7242,373.777,1178.0853,374.2267,1187.5296,377.0203" style="stroke:#181818;stroke-width:1;stroke-linejoin:miter;stroke-miterlimit:10;"/><path d="M1078.0374,297.6015 C1089.5285,313.2073 1104.9242,330.785 1122.5,342.2969 C1132.9698,349.1544 1138.4352,344.4477 1149.5,350.2969 C1162.9719,357.4186 1172.4895,364.2018 1183.7242,373.777" fill="none" style="stroke:#181818;stroke-width:1;"/></g><g class="link" data-entity-1="ent0003" data-entity-2="ent0008" data-link-type="dependency" id="lnk22"><polygon fill="#181818" points="957.2511,301.7817,963.9895,308.9646,961.8582,303.7246,967.0981,301.5932,957.2511,301.7817" style="stroke:#181818;stroke-width:1;stroke-linejoin:miter;stroke-miterlimit:10;"/><path d="M1519.8821,377.0527 C1507.5905,366.6058 1492.4031,355.978 1476.5,350.2969 C1448.1316,340.1627 1235.3648,346.2422 1205.5,342.2969 C1169.2702,337.5107 1161.4994,329.5859 1125.5,323.2969 C1055.443,311.058 1033.9191,327.934 966.5,305.2969 C963.4196,304.2626 964.9347,305.022 961.8582,303.7246" fill="none" style="stroke:#181818;stroke-width:1;"/></g><g class="link" data-entity-1="ent0004" data-entity-2="ent0008" data-link-type="dependency" id="lnk23"><polygon fill="#181818" points="957.3297,301.5583,963.9311,308.8674,961.8993,303.588,967.1786,301.5561,957.3297,301.5583" style="stroke:#181818;stroke-width:1;stroke-linejoin:miter;stroke-miterlimit:10;"/><path d="M1338.9136,377.032 C1322.2209,366.7173 1302.2039,356.1892 1282.5,350.2969 C1227.0397,333.7117 1209.7832,350.6368 1152.5,342.2969 C1115.4803,336.9071 1107.1677,330.712 1070.5,323.2969 C1024.5213,313.9988 1010.5127,321.5258 966.5,305.2969 C963.4512,304.1727 964.9547,304.9452 961.8993,303.588" fill="none" style="stroke:#181818;stroke-width:1;"/></g><g class="link" data-entity-1="ent0005" data-entity-2="ent0008" data-link-type="dependency" id="lnk24"><polygon fill="#181818" points="957.0919,300.9777,963.4316,308.5148,961.5871,303.1671,966.9347,301.3225,957.0919,300.9777" style="stroke:#181818;stroke-width:1;stroke-linejoin:miter;stroke-miterlimit:10;"/><path d="M1189.3636,377.1466 C1177.9174,367.1062 1163.9798,356.7387 1149.5,350.2969 C1128.1358,340.7924 1120.3498,347.2618 1097.5,342.2969 C1038.3796,329.4508 1022.1006,329.1468 966.5,305.2969 C963.3839,303.9602 964.7319,304.6989 961.5871,303.1671" fill="none" style="stroke:#181818;stroke-width:1;"/></g><g class="link" data-entity-1="ent0008" data-entity-2="ent0009" data-link-type="dependency" id="lnk25"><polygon fill="#181818" points="639.0194,400.6751,648.2925,403.9934,644.0055,400.3025,647.6963,396.0156,639.0194,400.6751" style="stroke:#181818;stroke-width:1;stroke-linejoin:miter;stroke-miterlimit:10;"/><path d="M901.5453,305.3383 C900.934,318.6361 897.6234,332.4482 888.5,342.2969 C855.3876,378.0417 735.8225,393.4417 644.0055,400.3025" fill="none" style="stroke:#181818;stroke-width:1;"/></g><g class="link" data-entity-1="ent0011" data-entity-2="ent0009" data-link-type="dependency" id="lnk26"><polygon fill="#181818" points="485.8853,380.2583,480.0054,372.3572,481.5284,377.8052,476.0804,379.3282,485.8853,380.2583" style="stroke:#181818;stroke-width:1;stroke-linejoin:miter;stroke-miterlimit:10;"/><path d="M372.5611,289.5578 C387.1907,305.7768 407.3428,326.5465 427.5,342.2969 C445.4961,356.3586 462.5415,367.1147 481.5284,377.8052" fill="none" style="stroke:#181818;stroke-width:1;"/><text fill="#000000" font-family="DejaVu Sans" font-size="13" lengthAdjust="spacing" textLength="100.0454" x="429.5" y="337.3638">channel quality</text></g><g class="link" data-entity-1="ent0010" data-entity-2="ent0009" data-link-type="dependency" id="lnk27"><polygon fill="#181818" points="534.475,380.0713,538.2976,370.9945,534.3768,375.0722,530.2991,371.1515,534.475,380.0713" style="stroke:#181818;stroke-width:1;stroke-linejoin:miter;stroke-miterlimit:10;"/><path d="M542.7183,289.3787 C540.2641,299.8174 537.7826,312.0561 536.5,323.2969 C534.3402,342.2249 534.0565,358.7543 534.3768,375.0722" fill="none" style="stroke:#181818;stroke-width:1;"/><text fill="#000000" font-family="DejaVu Sans" font-size="13" lengthAdjust="spacing" textLength="147.4307" x="538.5" y="337.3638">retransmission priority</text></g><g class="link" data-entity-1="ent0009" data-entity-2="ent0014" data-link-type="dependency" id="lnk28"><polygon fill="#181818" points="460.2689,105.1307,450.94,101.9729,455.29,105.5892,451.6737,109.9392,460.2689,105.1307" style="stroke:#181818;stroke-width:1;stroke-linejoin:miter;stroke-miterlimit:10;"/><path d="M431.9274,393.9461 C326.702,379.5223 174.256,351.2323 138.5,305.2969 C106.5593,264.2629 105.7104,228.6558 138.5,188.2969 C178.3339,139.2677 340.2098,116.1872 455.29,105.5892" fill="none" style="stroke:#181818;stroke-width:1;"/><text fill="#000000" font-family="DejaVu Sans" font-size="13" lengthAdjust="spacing" textLength="93.082" x="140.5" y="267.3638">PRB allocation</text></g><g class="link" data-entity-1="ent0014" data-entity-2="ent0001" data-link-type="dependency" id="lnk29"><polygon fill="#181818" points="1275.871,252.6831,1270.5037,244.4252,1271.6784,249.9587,1266.1448,251.1334,1275.871,252.6831" style="stroke:#181818;stroke-width:1;stroke-linejoin:miter;stroke-miterlimit:10;"/><path d="M686.7528,104.2447 C804.8046,113.9952 993.9403,136.7341 1149.5,188.2969 C1198.7485,204.6211 1247.3942,234.1791 1271.6784,249.9587" fill="none" style="stroke:#181818;stroke-width:1;"/><text fill="#000000" font-family="DejaVu Sans" font-size="13" lengthAdjust="spacing" textLength="109.0337" x="1122.5" y="175.3638">scheduled DL/UL</text></g><g class="link" data-entity-1="ent0012" data-entity-2="ent0009" data-link-type="dependency" id="lnk30"><polygon fill="#181818" points="624.5635,380.2482,634.4103,380.4485,629.1729,378.3108,631.3105,373.0734,624.5635,380.2482" style="stroke:#181818;stroke-width:1;stroke-linejoin:miter;stroke-miterlimit:10;"/><path d="M721.675,289.3143 C714.6909,306.2629 703.4409,327.9535 687.5,342.2969 C669.5354,358.4611 651.4791,368.9355 629.1729,378.3108" fill="none" style="stroke:#181818;stroke-width:1;"/><text fill="#000000" font-family="DejaVu Sans" font-size="13" lengthAdjust="spacing" textLength="177.1631" x="705.5" y="337.3638">load and interference state</text></g><?plantuml-src RLJ1Rjj64BtlLqnzCofPS0iVh4C1YL9geP8YKtPEkgp8bSIOt5MNIxX6KC1nKRH0WlOJyWk6QwU6upY_iFoZlbtAibpaG7ANE_DsvisR-MQf-JpZbF8pLHZACs6uv2m_IUIIQvvHfBAbaaAQiJbB1MaHmM2UYWsJVC5ZTPh8ESrucc-Un6B6YzIyKD8CUIQe8rxpLmMDkSoPIGpm-aTT2dcSg4RO6ZR9NjkRyi9Usa_bU_lPNfP_qw4Qr-qzVl-Etv_jhRspbsIlI0nLBDgCySWeJLl7tItYEHrtsJf4sdBesg7JL70jTEvjmZQzOKG_5wA0JITiD-amwD7kHBvIFfwZqKJ-s0vhbAfJv01kl1-CTh_YjpUHlS6OycGkUGeM9b8gMVV-YsI-eALEb4xC6cFlAnZxm916Q2aCnTpmYPoAt92OpPGsZuxxx5ScaJHjLRaJAADP8IEJA5cbrXrMkMrm48P18mm7r8gp9CzXEP7sItbk7-mLI3ttT8v0IQfuNFDvqxI8vyBKg1MEF6ghC_WVPZ-0qMm6HYSo5_CC-k0k2W1eeNGiD8Z09axoYEkOJ989NP7V3vvZkVhoKrI71gs0nj52n4Kgz4G-yaRVGbS9gCbpB8F3diSP1mVFSGvQuI5b4E_SERU2dnf3l62n5DnKx3YJvqxzH9w06Rwimfz8m5Fz1ne4ungK8qzgdfj8vLKL-gtd_hvee478I5231cgQf0WPrGnwGOr4zHdqspKwU5db7mvGHbVZAS-1C59f4fqHEgOm87EcLKRTKR0IB6x63R-OvaH20BuYDVBI6k25D4V3UiijwUZ5aSSVlUopA5L5Z2fvvMkHgq970k181VbqWk00dsCms1XryAvgt0iPE-vI7TbxeJ-jzpRM-mmN-8qJ1Pwr0pM9Hv5O6l2WnMjmXCLIYxh8bcRJSczpiy-yhzivPRZZpSt-UkCavzQkxltMunANHWikfKZHKjnHpxmEdewrCAXZljB-kXcPE_Lfz49OkIBpD5MHbm5pFzqXycvIlf9aJ9r-uxZFN3CzuRks8IvZL7132Zdq91YwrGYQAcDGL3NpiTiFwBbRibzyyztOVyhpyZVxBzhmfibsjydtNpMi20VNtkmZnjuLfk5VvGLbYKoo8gDfWiG03wI7ygtzP6-8FxPu3IebUBhVjwi96F4bZrmx0HCERihYUIZ_S7DsXtstJVO39koT6y3bEohVaWiK47SO5VVafp52BVz4q1Z3cCn-Cgw61I72QvnUE2_CwVAzCznXtszJ-scI0TMFy8ymmJLa5beLymMa_qZ8LVdEtkym0K8TUVy1?></g></svg>