<svg xmlns="http://www.w3.org/2000/svg" xmlns:xlink="http://www.w3.org/1999/xlink" contentStyleType="text/css" data-diagram-type="DESCRIPTION" height="945px" preserveAspectRatio="none" style="width:590px;height:945px;background:#FFFFFF;" version="1.1" viewBox="0 0 590 945" width="590px" zoomAndPan="magnify"><?plantuml 1.2026.4?><defs/><g><g class="title" data-source-line="5"><text fill="#000000" font-family="DejaVu Sans" font-size="14" font-weight="700" lengthAdjust="spacing" textLength="458.4658" x="10" y="22.9951">Gold-status: end-to-end &#1087;&#1088;&#1077;&#1086;&#1073;&#1088;&#1072;&#1079;&#1086;&#1074;&#1072;&#1085;&#1080;&#1077; &#1074; QoS-&#1087;&#1086;&#1083;&#1080;&#1090;&#1080;&#1082;&#1091;</text></g><!--entity UE--><g class="entity" data-qualified-name="UE" data-source-line="7" id="ent0001"><ellipse cx="88.0264" cy="368.7969" fill="#F1F1F1" rx="8" ry="8" style="stroke:#181818;stroke-width:0.5;"/><path d="M88.0264,376.7969 L88.0264,403.7969 M75.0264,384.7969 L101.0264,384.7969 M88.0264,403.7969 L75.0264,418.7969 M88.0264,403.7969 L101.0264,418.7969" fill="none" style="stroke:#181818;stroke-width:0.5;"/><text fill="#000000" font-family="DejaVu Sans" font-size="14" lengthAdjust="spacing" textLength="109.5869" x="33.2329" y="433.292">Gold subscriber</text><text fill="#000000" font-family="DejaVu Sans" font-size="14" lengthAdjust="spacing" textLength="19.0928" x="33.2329" y="449.5889">UE</text></g><!--entity BSS--><g class="entity" data-qualified-name="BSS" data-source-line="8" id="ent0002"><path d="M259.2329,59.2969 C259.2329,49.2969 336.3071,49.2969 336.3071,49.2969 C336.3071,49.2969 413.3813,49.2969 413.3813,59.2969 L413.3813,117.1875 C413.3813,127.1875 336.3071,127.1875 336.3071,127.1875 C336.3071,127.1875 259.2329,127.1875 259.2329,117.1875 L259.2329,59.2969" fill="#F1F1F1" style="stroke:#181818;stroke-width:0.5;"/><path d="M259.2329,59.2969 C259.2329,69.2969 336.3071,69.2969 336.3071,69.2969 C336.3071,69.2969 413.3813,69.2969 413.3813,59.2969" fill="none" style="stroke:#181818;stroke-width:0.5;"/><text fill="#000000" font-family="DejaVu Sans" font-size="14" lengthAdjust="spacing" textLength="63.6768" x="269.2329" y="86.292">BSS/CRM</text><text fill="#000000" font-family="DejaVu Sans" font-size="14" lengthAdjust="spacing" textLength="134.1484" x="269.2329" y="102.5889">commercial status:</text><text fill="#000000" font-family="DejaVu Sans" font-size="14" lengthAdjust="spacing" textLength="125.4326" x="269.2329" y="118.8857">gold/silver/bronze</text></g><!--entity SUB--><g class="entity" data-qualified-name="SUB" data-source-line="9" id="ent0003"><path d="M206.7329,207.2969 C206.7329,197.2969 266.4199,197.2969 266.4199,197.2969 C266.4199,197.2969 326.1069,197.2969 326.1069,207.2969 L326.1069,265.1875 C326.1069,275.1875 266.4199,275.1875 266.4199,275.1875 C266.4199,275.1875 206.7329,275.1875 206.7329,265.1875 L206.7329,207.2969" fill="#F1F1F1" style="stroke:#181818;stroke-width:0.5;"/><path d="M206.7329,207.2969 C206.7329,217.2969 266.4199,217.2969 266.4199,217.2969 C266.4199,217.2969 326.1069,217.2969 326.1069,207.2969" fill="none" style="stroke:#181818;stroke-width:0.5;"/><text fill="#000000" font-family="DejaVu Sans" font-size="14" lengthAdjust="spacing" textLength="99.374" x="216.7329" y="234.292">Subscriber DB</text><text fill="#000000" font-family="DejaVu Sans" font-size="14" lengthAdjust="spacing" textLength="62.665" x="216.7329" y="250.5889">LTE: HSS</text><text fill="#000000" font-family="DejaVu Sans" font-size="14" lengthAdjust="spacing" textLength="97.501" x="216.7329" y="266.8857">5G: UDM/UDR</text></g><!--entity POL--><g class="entity" data-qualified-name="POL" data-source-line="10" id="ent0004"><path d="M345.2329,207.2969 C345.2329,197.2969 402.2607,197.2969 402.2607,197.2969 C402.2607,197.2969 459.2886,197.2969 459.2886,207.2969 L459.2886,265.1875 C459.2886,275.1875 402.2607,275.1875 402.2607,275.1875 C402.2607,275.1875 345.2329,275.1875 345.2329,265.1875 L345.2329,207.2969" fill="#F1F1F1" style="stroke:#181818;stroke-width:0.5;"/><path d="M345.2329,207.2969 C345.2329,217.2969 402.2607,217.2969 402.2607,217.2969 C402.2607,217.2969 459.2886,217.2969 459.2886,207.2969" fill="none" style="stroke:#181818;stroke-width:0.5;"/><text fill="#000000" font-family="DejaVu Sans" font-size="14" lengthAdjust="spacing" textLength="94.0557" x="355.2329" y="234.292">Policy control</text><text fill="#000000" font-family="DejaVu Sans" font-size="14" lengthAdjust="spacing" textLength="70.3623" x="355.2329" y="250.5889">LTE: PCRF</text><text fill="#000000" font-family="DejaVu Sans" font-size="14" lengthAdjust="spacing" textLength="55.1934" x="355.2329" y="266.8857">5G: PCF</text></g><!--entity SESSION--><g class="entity" data-qualified-name="SESSION" data-source-line="11" id="ent0005"><rect fill="#F1F1F1" height="68.8906" rx="2.5" ry="2.5" style="stroke:#181818;stroke-width:0.5;" width="130.2705" x="269.2329" y="372.2969"/><text fill="#000000" font-family="DejaVu Sans" font-size="14" lengthAdjust="spacing" textLength="106.7021" x="279.2329" y="395.292">Session control</text><text fill="#000000" font-family="DejaVu Sans" font-size="14" lengthAdjust="spacing" textLength="110.2705" x="279.2329" y="411.5889">LTE: MME/P-GW</text><text fill="#000000" font-family="DejaVu Sans" font-size="14" lengthAdjust="spacing" textLength="92.3672" x="279.2329" y="427.8857">5G: AMF/SMF</text></g><!--entity UP--><g class="entity" data-qualified-name="UP" data-source-line="12" id="ent0006"><rect fill="#F1F1F1" height="68.8906" rx="2.5" ry="2.5" style="stroke:#181818;stroke-width:0.5;" width="189.9141" x="248.2329" y="649.2969"/><text fill="#000000" font-family="DejaVu Sans" font-size="14" lengthAdjust="spacing" textLength="169.9141" x="258.2329" y="672.292">User-plane enforcement</text><text fill="#000000" font-family="DejaVu Sans" font-size="14" lengthAdjust="spacing" textLength="112.3828" x="258.2329" y="688.5889">LTE: P-GW/PCEF</text><text fill="#000000" font-family="DejaVu Sans" font-size="14" lengthAdjust="spacing" textLength="89.9746" x="258.2329" y="704.8857">5G: UPF/QER</text></g><!--entity RAN--><g class="entity" data-qualified-name="RAN" data-source-line="13" id="ent0007"><rect fill="#F1F1F1" height="68.8906" rx="2.5" ry="2.5" style="stroke:#181818;stroke-width:0.5;" width="143.8877" x="16.2329" y="516.7969"/><text fill="#000000" font-family="DejaVu Sans" font-size="14" lengthAdjust="spacing" textLength="123.8877" x="26.2329" y="539.792">RAN enforcement</text><text fill="#000000" font-family="DejaVu Sans" font-size="14" lengthAdjust="spacing" textLength="89.1201" x="26.2329" y="556.0889">LTE: eNodeB</text><text fill="#000000" font-family="DejaVu Sans" font-size="14" lengthAdjust="spacing" textLength="57.8867" x="26.2329" y="572.3857">5G: gNB</text></g><!--entity IP--><g class="entity" data-qualified-name="IP" data-source-line="14" id="ent0008"><rect fill="#F1F1F1" height="68.8906" rx="2.5" ry="2.5" style="stroke:#181818;stroke-width:0.5;" width="122.3887" x="282.2329" y="773.2969"/><text fill="#000000" font-family="DejaVu Sans" font-size="14" lengthAdjust="spacing" textLength="93.9463" x="292.2329" y="796.292">IP/MPLS edge</text><text fill="#000000" font-family="DejaVu Sans" font-size="14" lengthAdjust="spacing" textLength="102.3887" x="292.2329" y="812.5889">DSCP, queues,</text><text fill="#000000" font-family="DejaVu Sans" font-size="14" lengthAdjust="spacing" textLength="81.4775" x="292.2329" y="828.8857">DPI, CGNAT</text></g><!--entity DN--><g class="entity" data-qualified-name="DN" data-source-line="15" id="ent0009"><path d="M278.6868,887.8538 C282.023,880.7703 288.2046,881.2327 292.0019,887.3901 C295.8154,880.8329 301.4781,880.3489 305.1676,887.509 C310.0692,880.6468 314.5768,881.6157 318.5797,888.3927 C321.9266,882.7591 327.3024,883.1055 331.0108,887.9644 C334.1289,882.1823 340.4154,881.1991 344.3979,886.962 C348.2515,881.2397 352.9988,881.5265 356.518,887.3141 C361.0408,881.3874 366.0631,880.9873 369.6618,888.2359 C373.7071,881.5794 379.0664,882.6609 383.0499,888.3031 C386.6264,881.7596 392.8283,880.178 397.2251,887.4623 C401.5951,882.2006 406.9637,881.9275 409.7375,889.0721 C414.2383,892.1513 414.0817,896.7652 409.5372,899.6737 C416.6716,903.0736 416.7188,907.8198 411.0836,912.7319 C414.8333,916.1998 414.3283,919.8554 409.9977,922.4174 C415.5132,926.1719 414.6469,931.0013 409.2989,934.1063 C406.3982,939.9312 400.4201,940.6724 396.7927,934.8892 C392.5726,940.6231 388.5882,942.3937 383.8102,935.461 C380.3315,942.941 376.0419,944.1525 370.1859,937.8031 C366.8963,943.4595 360.7521,943.2163 357.2729,938.0288 C353.0961,944.1375 349.1854,944.1911 345.0391,937.9985 C340.5523,943.9312 334.6208,943.2787 330.9756,937.0271 C327.5118,942.6718 321.2259,942.9038 317.3457,937.5429 C314.1204,942.5632 308.8988,943.0785 306.2674,936.9526 C300.9768,943.8623 296.2642,942.1442 292.3033,935.5751 C288.2437,941.8645 282.916,939.6867 279.9838,934.3777 C273.545,933.4843 270.9345,928.3582 275.4594,923.0759 C268.3297,920.9532 267.2008,916.7502 271.7299,911.0206 C268.3474,906.1218 269.8987,901.8194 275.644,900.2322 C270.2334,895.4001 271.9221,889.6929 278.6868,887.8538" fill="#F1F1F1" style="stroke:#181818;stroke-width:0.5;"/><text fill="#000000" font-family="DejaVu Sans" font-size="14" lengthAdjust="spacing" textLength="103.7148" x="285.2329" y="907.292">Internet / IMS /</text><text fill="#000000" font-family="DejaVu Sans" font-size="14" lengthAdjust="spacing" textLength="116.334" x="285.2329" y="923.5889">Enterprise / MEC</text></g><g class="entity" data-qualified-name="GMN20" data-source-line="29" id="ent0021"><path d="M178.7329,508.2969 L178.7329,547.2969 L160.52,551.2969 L178.7329,555.2969 L178.7329,593.9609 A0,0 0 0 0 178.7329,593.9609 L435.7515,593.9609 A0,0 0 0 0 435.7515,593.9609 L435.7515,518.2969 L425.7515,508.2969 L178.7329,508.2969 A0,0 0 0 0 178.7329,508.2969" fill="#FEFFDD" style="stroke:#181818;stroke-width:0.5;"/><path d="M425.7515,508.2969 L425.7515,518.2969 L435.7515,518.2969 L425.7515,508.2969" fill="#FEFFDD" style="stroke:#181818;stroke-width:0.5;"/><text fill="#000000" font-family="DejaVu Sans" font-size="13" lengthAdjust="spacing" textLength="236.0186" x="184.7329" y="525.3638">&#1041;&#1072;&#1079;&#1086;&#1074;&#1072;&#1103; &#1089;&#1090;&#1072;&#1085;&#1094;&#1080;&#1103; &#1086;&#1073;&#1099;&#1095;&#1085;&#1086; &#1085;&#1077; &#1074;&#1080;&#1076;&#1080;&#1090;</text><text fill="#000000" font-family="DejaVu Sans" font-size="13" lengthAdjust="spacing" textLength="172.9102" x="184.7329" y="540.4966">"gold" &#1082;&#1072;&#1082; &#1073;&#1080;&#1079;&#1085;&#1077;&#1089;-&#1089;&#1090;&#1072;&#1090;&#1091;&#1089;.</text><text fill="#000000" font-family="DejaVu Sans" font-size="13" lengthAdjust="spacing" textLength="198.8213" x="184.7329" y="555.6294">&#1054;&#1085;&#1072; &#1074;&#1080;&#1076;&#1080;&#1090; &#1090;&#1077;&#1093;&#1085;&#1080;&#1095;&#1077;&#1089;&#1082;&#1080;&#1081; QoS:</text><text fill="#000000" font-family="DejaVu Sans" font-size="13" lengthAdjust="spacing" textLength="164.1948" x="184.7329" y="570.7622">QCI/5QI, ARP, GBR/GFBR,</text><text fill="#000000" font-family="DejaVu Sans" font-size="13" lengthAdjust="spacing" textLength="183.9995" x="184.7329" y="585.895">AMBR and scheduler profile.</text></g><g class="link" data-entity-1="ent0002" data-entity-2="ent0003" data-link-type="dependency" id="lnk10"><polygon fill="#181818" points="265.2057,197.2941,269.7076,188.5343,265.4881,192.3021,261.7203,188.0825,265.2057,197.2941" style="stroke:#181818;stroke-width:1;stroke-linejoin:miter;stroke-miterlimit:10;"/><path d="M289.2757,127.4718 C284.5952,133.0111 280.4091,138.9903 277.2329,145.2969 C269.2319,161.1835 266.4334,175.5887 265.4881,192.3021" fill="none" style="stroke:#181818;stroke-width:1;"/><text fill="#000000" font-family="DejaVu Sans" font-size="13" lengthAdjust="spacing" textLength="79.7837" x="283.178" y="159.3638">entitlement,</text><text fill="#000000" font-family="DejaVu Sans" font-size="13" lengthAdjust="spacing" textLength="87.6738" x="279.2329" y="174.4966">profile, AMBR</text></g><g class="link" data-entity-1="ent0002" data-entity-2="ent0004" data-link-type="dependency" id="lnk11"><polygon fill="#181818" points="391.8608,197.2548,393.0312,187.4758,390.3875,192.4768,385.3864,189.8331,391.8608,197.2548" style="stroke:#181818;stroke-width:1;stroke-linejoin:miter;stroke-miterlimit:10;"/><path d="M362.5161,127.4328 C366.0251,133.2827 369.3879,139.3549 372.2329,145.2969 C380.128,161.7862 385.3433,176.1185 390.3875,192.4768" fill="none" style="stroke:#181818;stroke-width:1;"/><text fill="#000000" font-family="DejaVu Sans" font-size="13" lengthAdjust="spacing" textLength="84.5762" x="390.572" y="159.3638">policy group,</text><text fill="#000000" font-family="DejaVu Sans" font-size="13" lengthAdjust="spacing" textLength="89.2544" x="388.2329" y="174.4966">QoS template</text></g><g class="link" data-entity-1="ent0003" data-entity-2="ent0005" data-link-type="dependency" id="lnk12"><polygon fill="#181818" points="286.8864,372.2223,283.2824,363.0565,283.3246,368.7132,277.6679,368.7554,286.8864,372.2223" style="stroke:#181818;stroke-width:1;stroke-linejoin:miter;stroke-miterlimit:10;"/><path d="M258.4657,275.7461 C256.1018,296.3144 256.151,321.5963 265.2329,342.2969 C270.1384,353.478 274.5301,360.0489 283.3246,368.7132" fill="none" style="stroke:#181818;stroke-width:1;"/><text fill="#000000" font-family="DejaVu Sans" font-size="13" lengthAdjust="spacing" textLength="112.709" x="267.2329" y="322.3638">subscription data</text></g><g class="link" data-entity-1="ent0004" data-entity-2="ent0005" data-link-type="dependency" id="lnk13"><polygon fill="#181818" points="363.294,372.2516,371.8439,367.363,366.2525,368.2208,365.3946,362.6294,363.294,372.2516" style="stroke:#181818;stroke-width:1;stroke-linejoin:miter;stroke-miterlimit:10;"/><path d="M398.6925,275.4484 C395.7943,295.9295 390.5753,321.2231 381.2329,342.2969 C376.6193,352.704 373.0152,359.0069 366.2525,368.2208" fill="none" style="stroke:#181818;stroke-width:1;"/><text fill="#000000" font-family="DejaVu Sans" font-size="13" lengthAdjust="spacing" textLength="88.0229" x="413.4038" y="307.3638">QCI/5QI, ARP,</text><text fill="#000000" font-family="DejaVu Sans" font-size="13" lengthAdjust="spacing" textLength="118.3647" x="398.2329" y="322.4966">AMBR, GBR/GFBR,</text><text fill="#000000" font-family="DejaVu Sans" font-size="13" lengthAdjust="spacing" textLength="93.8184" x="410.5061" y="337.6294">APN/DNN/slice</text></g><g class="link" data-entity-1="ent0005" data-entity-2="ent0006" data-link-type="dependency" id="lnk14"><polygon fill="#181818" points="398.2425,649.2895,407.8008,646.915,402.1872,646.2171,402.885,640.6035,398.2425,649.2895" style="stroke:#181818;stroke-width:1;stroke-linejoin:miter;stroke-miterlimit:10;"/><path d="M388.0023,441.478 C410.0948,458.5154 433.2691,481.3257 445.2329,508.2969 C460.7312,543.236 461.0997,559.5235 445.2329,594.2969 C435.2086,616.266 420.6836,631.8109 402.1872,646.2171" fill="none" style="stroke:#181818;stroke-width:1;"/><text fill="#000000" font-family="DejaVu Sans" font-size="13" lengthAdjust="spacing" textLength="131.5044" x="458.2329" y="555.8638">bearer/session rules</text></g><g class="link" data-entity-1="ent0005" data-entity-2="ent0007" data-link-type="dependency" id="lnk15"><polygon fill="#181818" points="146.2564,516.6857,156.0492,515.6357,150.583,514.1795,152.0392,508.7133,146.2564,516.6857" style="stroke:#181818;stroke-width:1;stroke-linejoin:miter;stroke-miterlimit:10;"/><path d="M276.2459,441.3869 C237.0407,464.0972 189.7958,491.4647 150.583,514.1795" fill="none" style="stroke:#181818;stroke-width:1;"/><text fill="#000000" font-family="DejaVu Sans" font-size="13" lengthAdjust="spacing" textLength="117.0571" x="221.2329" y="485.3638">radio QoS context</text></g><g class="link" data-entity-1="ent0001" data-entity-2="ent0007" data-link-type="dependency" id="lnk16"><polygon fill="#181818" points="88.2329,516.7124,92.2329,507.7124,88.2329,511.7124,84.2329,507.7124,88.2329,516.7124" style="stroke:#181818;stroke-width:1;stroke-linejoin:miter;stroke-miterlimit:10;"/><path d="M88.2329,453.6692 C88.2329,474.1723 88.2329,492.9006 88.2329,511.7124" fill="none" style="stroke:#181818;stroke-width:1;"/><text fill="#000000" font-family="DejaVu Sans" font-size="13" lengthAdjust="spacing" textLength="81.0659" x="90.2329" y="485.3638">radio access</text></g><g class="link" data-entity-1="ent0007" data-entity-2="ent0006" data-link-type="dependency" id="lnk17"><polygon fill="#181818" points="276.6573,649.0888,270.442,641.4487,272.1986,646.8259,266.8214,648.5825,276.6573,649.0888" style="stroke:#181818;stroke-width:1;stroke-linejoin:miter;stroke-miterlimit:10;"/><path d="M152.7598,585.8131 C158.3287,588.6881 163.8784,591.547 169.2329,594.2969 C204.6567,612.4891 239.7599,630.3626 272.1986,646.8259" fill="none" style="stroke:#181818;stroke-width:1;"/><text fill="#000000" font-family="DejaVu Sans" font-size="13" lengthAdjust="spacing" textLength="114.1118" x="243.2329" y="626.3638">user plane tunnel</text></g><g class="link" data-entity-1="ent0006" data-entity-2="ent0008" data-link-type="dependency" id="lnk18"><polygon fill="#181818" points="343.2329,773.2467,347.2329,764.2467,343.2329,768.2467,339.2329,764.2467,343.2329,773.2467" style="stroke:#181818;stroke-width:1;stroke-linejoin:miter;stroke-miterlimit:10;"/><path d="M343.2329,718.4569 C343.2329,735.5251 343.2329,751.194 343.2329,768.2467" fill="none" style="stroke:#181818;stroke-width:1;"/><text fill="#000000" font-family="DejaVu Sans" font-size="13" lengthAdjust="spacing" textLength="142.0098" x="345.2329" y="750.3638">DSCP/shaping/routing</text></g><g class="link" data-entity-1="ent0008" data-entity-2="ent0009" data-link-type="dependency" id="lnk19"><polygon fill="#181818" points="343.2329,879.0371,347.2329,870.0371,343.2329,874.0371,339.2329,870.0371,343.2329,879.0371" style="stroke:#181818;stroke-width:1;stroke-linejoin:miter;stroke-miterlimit:10;"/><path d="M343.2329,842.4284 C343.2329,854.2497 343.2329,862.4641 343.2329,874.0371" fill="none" style="stroke:#181818;stroke-width:1;"/></g><?plantuml-src RLJ1SjCm4BthAvQSu-h49GTcciG9cQbTDyPmoKMnDwd1aOma0-L4sm4E71X-W6y0XWwb3F0BzX-niaD9WKlaxEvxajxkqwrIY_L6G25EL6N1RD0AAPXvbCjIQB61L6rA9L7Qs9uK21fJAbWNk5DYZaMcdkPo3IjHcDrCXYjH5NQYf0t51c6C3yNz2c8X3REv9RwfAZBFM64hCm2KcMULHmlKFviNzKNze_v8wuVw2trzelLxVLbVGFq9ZbJirJyf-gs-RCueUjMSCoPIgpJq72cOQcbIdIzHBsJYzq0OI7oM2IkMmY3qXd7CH_DW8Uc66zHfBWhO7cGXryJ0JLuyGSsNMidds18GPeSXlju1niE5FBZd3-1k72_axUa0ad70a_6yXSN9S0SMgI9FJqXOQRKgjhXeD9zqm6WqQK7HuG6xLfisGsDo9V-21O7F8s_we8Fk1nCU1nqyzkDuTXZkKYG6jLSMGY8flL8wnGtrzVS1Y8L78tzxYYIQy2E_EtuIxRBCzyF_m35K6Guxx3eSjZYgt0NE8Xv41p5WjiQ57CUZg0-FAwpGzEblDEl3Q1hktskXiuYbXQeoGacBMg853hCW1hwGlekKEYSjEGJ-g0MCGyQeE-1vTvpSu8QfdJ1tHk8ljLhb1VP9e-7ykf8qfigoQyXQgwgaKXejiBWXeImonzLoTd9IzNQkIkkwuRhA7ClDcgFHZDy-eXljpoDYT7lsOJgSy-c4lYWGXNmSXjpGnhJ75kSuaeZWInIQ1iziMwwh0isDAjU30MYHvSeveHqAV6PPul-J5cbADCo5hlah6WJe1i5MKcB1AEooCvTrdU7awP8SpKaJIokRTGLEPgailGFv-jY2MhLDhj_ziMZp5ffJSYHvjNb5tdmBhOdVDA_9l3-0Vfn_oR2VdN5Pppcj1_KL0QwW_aY9BwwcEVKwckQiEMzEzrZzdi8VTg10sOlcfNiIY9i0n75PVtLw3DYD1lnHdhbEWA3tnQJ7c96kf4Ct6NlCFJlkRhy0?></g></svg>