<svg xmlns="http://www.w3.org/2000/svg" xmlns:xlink="http://www.w3.org/1999/xlink" contentStyleType="text/css" data-diagram-type="DESCRIPTION" height="755px" preserveAspectRatio="none" style="width:800px;height:755px;background:#FFFFFF;" version="1.1" viewBox="0 0 800 755" width="800px" zoomAndPan="magnify"><?plantuml 1.2026.4?><defs/><g><g class="title" data-source-line="5"><text fill="#000000" font-family="DejaVu Sans" font-size="14" font-weight="700" lengthAdjust="spacing" textLength="425.4619" x="183.769" y="22.9951">Gold-status &#1074; RAN: &#1095;&#1090;&#1086; &#1088;&#1077;&#1072;&#1083;&#1100;&#1085;&#1086; &#1091;&#1095;&#1080;&#1090;&#1099;&#1074;&#1072;&#1077;&#1090; scheduler</text></g><!--cluster POL--><g class="cluster" data-qualified-name="POL" data-source-line="7" id="ent0001"><rect fill="none" height="120" rx="2.5" ry="2.5" style="stroke:#181818;stroke-width:1;" width="548" x="14" y="49.2969"/><text fill="#000000" font-family="DejaVu Sans" font-size="14" font-weight="700" lengthAdjust="spacing" textLength="192.835" x="191.5825" y="64.292">Policy context from core</text></g><!--cluster RAN--><g class="cluster" data-qualified-name="RAN" data-source-line="12" id="ent0005"><polygon fill="none" points="182,198.2969,192,188.2969,370,188.2969,370,606.2969,360,616.2969,182,616.2969,182,198.2969" style="stroke:#181818;stroke-width:1;stroke-linejoin:miter;stroke-miterlimit:10;"/><line style="stroke:#181818;stroke-width:1;" x1="360" x2="370" y1="198.2969" y2="188.2969"/><line style="stroke:#181818;stroke-width:1;" x1="182" x2="360" y1="198.2969" y2="198.2969"/><line style="stroke:#181818;stroke-width:1;" x1="360" x2="360" y1="198.2969" y2="616.2969"/><text fill="#000000" font-family="DejaVu Sans" font-size="14" font-weight="700" lengthAdjust="spacing" textLength="98.54" x="222.73" y="214.292">eNodeB/gNB</text></g><!--entity GUE--><g class="entity" data-qualified-name="GUE" data-source-line="18" id="ent0010"><ellipse cx="117.8667" cy="687.7969" fill="#F1F1F1" rx="8" ry="8" style="stroke:#181818;stroke-width:0.5;"/><path d="M117.8667,695.7969 L117.8667,722.7969 M104.8667,703.7969 L130.8667,703.7969 M117.8667,722.7969 L104.8667,737.7969 M117.8667,722.7969 L130.8667,737.7969" fill="none" style="stroke:#181818;stroke-width:0.5;"/><text fill="#000000" font-family="DejaVu Sans" font-size="14" lengthAdjust="spacing" textLength="55.7334" x="90" y="752.292">Gold UE</text></g><!--entity DUE--><g class="entity" data-qualified-name="DUE" data-source-line="19" id="ent0011"><ellipse cx="275.8481" cy="687.7969" fill="#F1F1F1" rx="8" ry="8" style="stroke:#181818;stroke-width:0.5;"/><path d="M275.8481,695.7969 L275.8481,722.7969 M262.8481,703.7969 L288.8481,703.7969 M275.8481,722.7969 L262.8481,737.7969 M275.8481,722.7969 L288.8481,737.7969" fill="none" style="stroke:#181818;stroke-width:0.5;"/><text fill="#000000" font-family="DejaVu Sans" font-size="14" lengthAdjust="spacing" textLength="74.6963" x="238.5" y="752.292">Default UE</text></g><!--entity VUE--><g class="entity" data-qualified-name="VUE" data-source-line="20" id="ent0012"><ellipse cx="421.9429" cy="687.7969" fill="#F1F1F1" rx="8" ry="8" style="stroke:#181818;stroke-width:0.5;"/><path d="M421.9429,695.7969 L421.9429,722.7969 M408.9429,703.7969 L434.9429,703.7969 M421.9429,722.7969 L408.9429,737.7969 M421.9429,722.7969 L434.9429,737.7969" fill="none" style="stroke:#181818;stroke-width:0.5;"/><text fill="#000000" font-family="DejaVu Sans" font-size="14" lengthAdjust="spacing" textLength="61.8857" x="391" y="752.292">Voice UE</text></g><g class="entity" data-qualified-name="GMN22" data-source-line="33" id="ent0023"><path d="M378,538.2969 L378,608.8281 A0,0 0 0 0 378,608.8281 L791.8501,608.8281 A0,0 0 0 0 791.8501,608.8281 L791.8501,548.2969 L781.8501,538.2969 L487.2659,538.2969 L361.6634,496.9058 L479.2659,538.2969 L378,538.2969 A0,0 0 0 0 378,538.2969" fill="#FEFFDD" style="stroke:#181818;stroke-width:0.5;"/><path d="M781.8501,538.2969 L781.8501,548.2969 L791.8501,548.2969 L781.8501,538.2969" fill="#FEFFDD" style="stroke:#181818;stroke-width:0.5;"/><text fill="#000000" font-family="DejaVu Sans" font-size="13" lengthAdjust="spacing" textLength="301.4185" x="384" y="555.3638">Gold-status &#1087;&#1086;&#1074;&#1099;&#1096;&#1072;&#1077;&#1090; &#1074;&#1077;&#1088;&#1086;&#1103;&#1090;&#1085;&#1086;&#1089;&#1090;&#1100; &#1088;&#1077;&#1089;&#1091;&#1088;&#1089;&#1072;,</text><text fill="#000000" font-family="DejaVu Sans" font-size="13" lengthAdjust="spacing" textLength="324.5811" x="384" y="570.4966">&#1085;&#1086; &#1085;&#1077; &#1089;&#1086;&#1079;&#1076;&#1072;&#1077;&#1090; &#1088;&#1072;&#1076;&#1080;&#1086;&#1077;&#1084;&#1082;&#1086;&#1089;&#1090;&#1100;. UE &#1089; &#1087;&#1083;&#1086;&#1093;&#1080;&#1084; SINR</text><text fill="#000000" font-family="DejaVu Sans" font-size="13" lengthAdjust="spacing" textLength="345.4775" x="384" y="585.6294">&#1084;&#1086;&#1078;&#1077;&#1090; &#1087;&#1086;&#1090;&#1088;&#1077;&#1073;&#1086;&#1074;&#1072;&#1090;&#1100; &#1073;&#1086;&#1083;&#1100;&#1096;&#1077; PRB &#1085;&#1072; &#1090;&#1086;&#1090; &#1078;&#1077; bitrate.</text><text fill="#000000" font-family="DejaVu Sans" font-size="13" lengthAdjust="spacing" textLength="392.8501" x="384" y="600.7622">&#1057;&#1090;&#1088;&#1086;&#1075;&#1072;&#1103; &#1075;&#1072;&#1088;&#1072;&#1085;&#1090;&#1080;&#1103; &#1090;&#1088;&#1077;&#1073;&#1091;&#1077;&#1090; GBR/GFBR + admission control.</text></g><!--entity GOLD--><g class="entity" data-qualified-name="POL.GOLD" data-source-line="8" id="ent0002"><rect fill="#F1F1F1" height="85.1875" rx="2.5" ry="2.5" style="stroke:#181818;stroke-width:0.5;" width="156.9512" x="22.5" y="76.2969"/><text fill="#000000" font-family="DejaVu Sans" font-size="14" lengthAdjust="spacing" textLength="117.1543" x="32.5" y="99.292">Gold data profile</text><text fill="#000000" font-family="DejaVu Sans" font-size="14" lengthAdjust="spacing" textLength="90.3301" x="32.5" y="115.5889">higher AMBR</text><text fill="#000000" font-family="DejaVu Sans" font-size="14" lengthAdjust="spacing" textLength="136.9512" x="32.5" y="131.8857">QCI/5QI 6/8/custom</text><text fill="#000000" font-family="DejaVu Sans" font-size="14" lengthAdjust="spacing" textLength="77.0889" x="32.5" y="148.1826">higher ARP</text></g><!--entity DEF--><g class="entity" data-qualified-name="POL.DEF" data-source-line="9" id="ent0003"><rect fill="#F1F1F1" height="85.1875" rx="2.5" ry="2.5" style="stroke:#181818;stroke-width:0.5;" width="156.1172" x="198" y="76.2969"/><text fill="#000000" font-family="DejaVu Sans" font-size="14" lengthAdjust="spacing" textLength="136.1172" x="208" y="99.292">Default data profile</text><text fill="#000000" font-family="DejaVu Sans" font-size="14" lengthAdjust="spacing" textLength="67.0537" x="208" y="115.5889">QCI/5QI 9</text><text fill="#000000" font-family="DejaVu Sans" font-size="14" lengthAdjust="spacing" textLength="73.0146" x="208" y="131.8857">best effort</text><text fill="#000000" font-family="DejaVu Sans" font-size="14" lengthAdjust="spacing" textLength="70.4717" x="208" y="148.1826">lower ARP</text></g><!--entity VOICE--><g class="entity" data-qualified-name="POL.VOICE" data-source-line="10" id="ent0004"><rect fill="#F1F1F1" height="68.8906" rx="2.5" ry="2.5" style="stroke:#181818;stroke-width:0.5;" width="180.8154" x="372.5" y="84.2969"/><text fill="#000000" font-family="DejaVu Sans" font-size="14" lengthAdjust="spacing" textLength="87.3223" x="382.5" y="107.292">Voice profile</text><text fill="#000000" font-family="DejaVu Sans" font-size="14" lengthAdjust="spacing" textLength="160.8154" x="382.5" y="123.5889">QCI/5QI 1 + GBR/GFBR</text><text fill="#000000" font-family="DejaVu Sans" font-size="14" lengthAdjust="spacing" textLength="134.5654" x="382.5" y="139.8857">QCI/5QI 5 signaling</text></g><!--entity ADM--><g class="entity" data-qualified-name="RAN.ADM" data-source-line="13" id="ent0006"><rect fill="#F1F1F1" height="68.8906" rx="2.5" ry="2.5" style="stroke:#181818;stroke-width:0.5;" width="147.2715" x="202.5" y="220.2969"/><text fill="#000000" font-family="DejaVu Sans" font-size="14" lengthAdjust="spacing" textLength="127.2715" x="212.5" y="243.292">Admission Control</text><text fill="#000000" font-family="DejaVu Sans" font-size="14" lengthAdjust="spacing" textLength="125.3643" x="212.5" y="259.5889">GBR budget, ARP,</text><text fill="#000000" font-family="DejaVu Sans" font-size="14" lengthAdjust="spacing" textLength="58.4609" x="212.5" y="275.8857">cell load</text></g><!--entity QUE--><g class="entity" data-qualified-name="RAN.QUE" data-source-line="14" id="ent0007"><rect fill="#F1F1F1" height="68.8906" rx="2.5" ry="2.5" style="stroke:#181818;stroke-width:0.5;" width="138.9043" x="206.5" y="326.2969"/><text fill="#000000" font-family="DejaVu Sans" font-size="14" lengthAdjust="spacing" textLength="118.9043" x="216.5" y="349.292">DRB/QoS queues</text><text fill="#000000" font-family="DejaVu Sans" font-size="14" lengthAdjust="spacing" textLength="116.6143" x="216.5" y="365.5889">voice, gold data,</text><text fill="#000000" font-family="DejaVu Sans" font-size="14" lengthAdjust="spacing" textLength="85.2441" x="216.5" y="381.8857">default data</text></g><!--entity SCH--><g class="entity" data-qualified-name="RAN.SCH" data-source-line="15" id="ent0008"><rect fill="#F1F1F1" height="68.8906" rx="2.5" ry="2.5" style="stroke:#181818;stroke-width:0.5;" width="171.04" x="190.5" y="432.2969"/><text fill="#000000" font-family="DejaVu Sans" font-size="14" lengthAdjust="spacing" textLength="151.04" x="200.5" y="455.292">QoS-aware Scheduler</text><text fill="#000000" font-family="DejaVu Sans" font-size="14" lengthAdjust="spacing" textLength="111.0703" x="200.5" y="471.5889">priority, weight,</text><text fill="#000000" font-family="DejaVu Sans" font-size="14" lengthAdjust="spacing" textLength="126.9844" x="200.5" y="487.8857">fairness, CQI/SINR</text></g><!--entity RES--><g class="entity" data-qualified-name="RAN.RES" data-source-line="16" id="ent0009"><rect fill="#F1F1F1" height="68.8906" rx="2.5" ry="2.5" style="stroke:#181818;stroke-width:0.5;" width="162.085" x="195" y="539.2969"/><text fill="#000000" font-family="DejaVu Sans" font-size="14" lengthAdjust="spacing" textLength="112.5605" x="205" y="562.292">Radio resources</text><text fill="#000000" font-family="DejaVu Sans" font-size="14" lengthAdjust="spacing" textLength="73.6572" x="205" y="578.5889">PRB, slots,</text><text fill="#000000" font-family="DejaVu Sans" font-size="14" lengthAdjust="spacing" textLength="142.085" x="205" y="594.8857">MIMO layers, beams</text></g><g class="link" data-entity-1="ent0002" data-entity-2="ent0006" data-link-type="dependency" id="lnk13"><polygon fill="#181818" points="232.1612,220.2289,227.4473,211.5814,228.1913,217.1891,222.5836,217.9332,232.1612,220.2289" style="stroke:#181818;stroke-width:1;stroke-linejoin:miter;stroke-miterlimit:10;"/><path d="M155.4118,161.4608 C180.0943,180.3605 204.9264,199.3748 228.1913,217.1891" fill="none" style="stroke:#181818;stroke-width:1;"/></g><g class="link" data-entity-1="ent0003" data-entity-2="ent0006" data-link-type="dependency" id="lnk14"><polygon fill="#181818" points="276,220.2289,280,211.2289,276,215.2289,272,211.2289,276,220.2289" style="stroke:#181818;stroke-width:1;stroke-linejoin:miter;stroke-miterlimit:10;"/><path d="M276,161.4608 C276,180.3605 276,197.4146 276,215.2289" fill="none" style="stroke:#181818;stroke-width:1;"/></g><g class="link" data-entity-1="ent0004" data-entity-2="ent0006" data-link-type="dependency" id="lnk15"><polygon fill="#181818" points="322.8487,220.2262,332.4942,218.2353,326.9129,217.3138,327.8344,211.7325,322.8487,220.2262" style="stroke:#181818;stroke-width:1;stroke-linejoin:miter;stroke-miterlimit:10;"/><path d="M415.812,153.6107 C387.356,174.0017 355.3077,196.9667 326.9129,217.3138" fill="none" style="stroke:#181818;stroke-width:1;"/></g><g class="link" data-entity-1="ent0006" data-entity-2="ent0007" data-link-type="dependency" id="lnk16"><polygon fill="#181818" points="276,326.2005,280,317.2005,276,321.2005,272,317.2005,276,326.2005" style="stroke:#181818;stroke-width:1;stroke-linejoin:miter;stroke-miterlimit:10;"/><path d="M276,289.5627 C276,301.3063 276,309.4706 276,321.2005" fill="none" style="stroke:#181818;stroke-width:1;"/></g><g class="link" data-entity-1="ent0007" data-entity-2="ent0008" data-link-type="dependency" id="lnk17"><polygon fill="#181818" points="276,432.2005,280,423.2005,276,427.2005,272,423.2005,276,432.2005" style="stroke:#181818;stroke-width:1;stroke-linejoin:miter;stroke-miterlimit:10;"/><path d="M276,395.5627 C276,407.3063 276,415.4706 276,427.2005" fill="none" style="stroke:#181818;stroke-width:1;"/></g><g class="link" data-entity-1="ent0008" data-entity-2="ent0009" data-link-type="dependency" id="lnk18"><polygon fill="#181818" points="276,539.2438,280,530.2438,276,534.2438,272,530.2438,276,539.2438" style="stroke:#181818;stroke-width:1;stroke-linejoin:miter;stroke-miterlimit:10;"/><path d="M276,501.3082 C276,513.4318 276,522.1166 276,534.2438" fill="none" style="stroke:#181818;stroke-width:1;"/></g><g class="link" data-entity-1="ent0009" data-entity-2="ent0010" data-link-type="dependency" id="lnk19"><polygon fill="#181818" points="118.017,678.9182,122.9399,670.3879,118.542,673.9458,114.9841,669.5479,118.017,678.9182" style="stroke:#181818;stroke-width:1;stroke-linejoin:miter;stroke-miterlimit:10;"/><path d="M194.8243,590.4451 C173.3247,598.2358 151.9649,609.8861 137,627.2969 C124.8476,641.4355 120.3864,656.4769 118.542,673.9458" fill="none" style="stroke:#181818;stroke-width:1;"/><text fill="#000000" font-family="DejaVu Sans" font-size="13" lengthAdjust="spacing" textLength="131.4155" x="139" y="641.3638">more chance of PRB</text><text fill="#000000" font-family="DejaVu Sans" font-size="13" lengthAdjust="spacing" textLength="113.4707" x="147.9724" y="656.4966">under congestion</text></g><g class="link" data-entity-1="ent0009" data-entity-2="ent0011" data-link-type="dependency" id="lnk20"><polygon fill="#181818" points="276,679.2739,280,670.2739,276,674.2739,272,670.2739,276,679.2739" style="stroke:#181818;stroke-width:1;stroke-linejoin:miter;stroke-miterlimit:10;"/><path d="M276,608.3304 C276,629.6608 276,652.3004 276,674.2739" fill="none" style="stroke:#181818;stroke-width:1;"/><text fill="#000000" font-family="DejaVu Sans" font-size="13" lengthAdjust="spacing" textLength="119.2915" x="278" y="641.3638">elastic throughput</text><text fill="#000000" font-family="DejaVu Sans" font-size="13" lengthAdjust="spacing" textLength="65.2793" x="305.0061" y="656.4966">slows first</text></g><g class="link" data-entity-1="ent0009" data-entity-2="ent0012" data-link-type="dependency" id="lnk21"><polygon fill="#181818" points="420.7674,679.1715,423.5145,669.7136,420.0917,674.2174,415.5879,670.7947,420.7674,679.1715" style="stroke:#181818;stroke-width:1;stroke-linejoin:miter;stroke-miterlimit:10;"/><path d="M349.8894,608.399 C356.326,611.1345 362.7616,613.8026 369,616.2969 C382.5747,621.7243 390.1847,616.4623 400,627.2969 C412.7164,641.3339 417.6886,656.5979 420.0917,674.2174" fill="none" style="stroke:#181818;stroke-width:1;"/><text fill="#000000" font-family="DejaVu Sans" font-size="13" lengthAdjust="spacing" textLength="129.6826" x="418" y="641.3638">low-delay protected</text><text fill="#000000" font-family="DejaVu Sans" font-size="13" lengthAdjust="spacing" textLength="102.1084" x="431.7871" y="656.4966">voice resources</text></g><?plantuml-src PLJDRXCn4BxlKmozaZJYK0GSa9gVbaXDqYHgJdjnThsR1QyTR2yXGaZz4IfIA_KPU8DG25Iq3Q_WVIF6pa-JSl2kFPxvFFvcFZyPIXAd11WPYqo3Igacd7ZgNSA7H98K0f4E1QTST_MOKP0qG8UOqJKNDI2X62KyXeWmjRuJqeXaJEy9hfiafL2bRqalWoxXojE9HhnzmSAYqaHd2imrT7QRho0_pq_D3F9ZCpKJSvjVcdkxFClFpKr-cb-OQpHFyrDGmO266QFIyrPvmTQXO4amniIvfXyrH5BOMqYw1KJ1OUi0Fda0Q_us1GY99Z2K8aeOzVaWYGTKmcwZtF5vkr8lxRJhyBpqeXHaIelqmQ5pw53tMmVLJT3g_EQFS9TGBttUfqe3ZI8XjS-P6AsXLMjxcs0zaGJqVvHdy1JsovtI_jvwcZkWafWJXlLmQBrMlLBpFdjSX0X5c_Whb-9csMqYtu_fs0tJHAb4SAWWWr8md-CXqC_2cEg2JRBWyu0o1aoGqA7iLXkFRjyfbzgY2-ypcb7bym_s0WM8bqmZGhX6a0Df7zKsGH2WI4P4KkWkw-ppeKo4JFIu02EADT285954SgfK0IhjUgbRRtOSNhVoPXElGy94e469J0OsgyDEkG2A2QqGfL5ljAmAg4IWFYMfcXDKwo9t9D12BZhbg3OlEQQxC2zhlTYfFkpC2xUmzz3ksKw1Ol6rummBlPgxCgrMEDpSaeB3pUs5SBYvJGk7csCcy0fIx7081WHB0o82l9lFCsHPMY74s6nOqLL8rOLGHj0SW1v8aSM3OOQTY7IC54I9L7hbtNFUk54CCMHi6r4ZhJHS5FQ1Km-xJ5Fe2uqgiMdOd3Sa_jVCp7L-aNzTI1YrF4MXp_8hr3pAF3z1XLywxUFqB3_EJyoauBaN03zJmFNC_3O_5_7eEC753HgdvixyMI9i8-leQm-yHTiNzBW3sniUUitCh_dXc0qwstVckytBJDpXRe7F3YOvjKJQWoTWtoGRWw7GJxGaccvxvfkBdvaV67i5xcSpkaVl6pGiqVCpT-1IhIXSif9PC9VPjaTv29Q_Vm00?></g></svg>